%TF.GenerationSoftware,KiCad,Pcbnew,8.0.7*%
%TF.CreationDate,2025-02-04T22:32:57+01:00*%
%TF.ProjectId,011_rev2,3031315f-7265-4763-922e-6b696361645f,rev?*%
%TF.SameCoordinates,Original*%
%TF.FileFunction,Paste,Bot*%
%TF.FilePolarity,Positive*%
%FSLAX46Y46*%
G04 Gerber Fmt 4.6, Leading zero omitted, Abs format (unit mm)*
G04 Created by KiCad (PCBNEW 8.0.7) date 2025-02-04 22:32:57*
%MOMM*%
%LPD*%
G01*
G04 APERTURE LIST*
G04 Aperture macros list*
%AMRoundRect*
0 Rectangle with rounded corners*
0 $1 Rounding radius*
0 $2 $3 $4 $5 $6 $7 $8 $9 X,Y pos of 4 corners*
0 Add a 4 corners polygon primitive as box body*
4,1,4,$2,$3,$4,$5,$6,$7,$8,$9,$2,$3,0*
0 Add four circle primitives for the rounded corners*
1,1,$1+$1,$2,$3*
1,1,$1+$1,$4,$5*
1,1,$1+$1,$6,$7*
1,1,$1+$1,$8,$9*
0 Add four rect primitives between the rounded corners*
20,1,$1+$1,$2,$3,$4,$5,0*
20,1,$1+$1,$4,$5,$6,$7,0*
20,1,$1+$1,$6,$7,$8,$9,0*
20,1,$1+$1,$8,$9,$2,$3,0*%
%AMRotRect*
0 Rectangle, with rotation*
0 The origin of the aperture is its center*
0 $1 length*
0 $2 width*
0 $3 Rotation angle, in degrees counterclockwise*
0 Add horizontal line*
21,1,$1,$2,0,0,$3*%
G04 Aperture macros list end*
%ADD10C,0.100000*%
%ADD11RotRect,2.600000X2.600000X350.000000*%
%ADD12RotRect,2.600000X2.600000X10.000000*%
%ADD13RotRect,2.000000X0.850000X350.000000*%
%ADD14RotRect,2.000000X0.850000X170.000000*%
%ADD15RoundRect,0.112500X0.165116X0.143350X-0.204187X0.078232X-0.165116X-0.143350X0.204187X-0.078232X0*%
%ADD16RotRect,2.000000X0.850000X10.000000*%
%ADD17RotRect,2.000000X0.850000X190.000000*%
%ADD18RoundRect,0.112500X0.204187X0.078232X-0.165116X0.143350X-0.204187X-0.078232X0.165116X-0.143350X0*%
%ADD19RoundRect,0.112500X0.187500X0.112500X-0.187500X0.112500X-0.187500X-0.112500X0.187500X-0.112500X0*%
%ADD20RoundRect,0.112500X-0.187500X-0.112500X0.187500X-0.112500X0.187500X0.112500X-0.187500X0.112500X0*%
G04 APERTURE END LIST*
D10*
%TO.C,L34*%
X105560252Y-74175308D02*
X105430016Y-74913913D01*
X103460400Y-74566617D01*
X103521177Y-74221934D01*
X103984559Y-73897473D01*
X105560252Y-74175308D01*
G36*
X105560252Y-74175308D02*
G01*
X105430016Y-74913913D01*
X103460400Y-74566617D01*
X103521177Y-74221934D01*
X103984559Y-73897473D01*
X105560252Y-74175308D01*
G37*
%TO.C,L28*%
X102160252Y-92775308D02*
X102030016Y-93513913D01*
X100060400Y-93166617D01*
X100121177Y-92821934D01*
X100584559Y-92497473D01*
X102160252Y-92775308D01*
G36*
X102160252Y-92775308D02*
G01*
X102030016Y-93513913D01*
X100060400Y-93166617D01*
X100121177Y-92821934D01*
X100584559Y-92497473D01*
X102160252Y-92775308D01*
G37*
%TO.C,L14*%
X208021638Y-88104317D02*
X206052022Y-88451614D01*
X205991246Y-88106931D01*
X206315709Y-87643549D01*
X207891402Y-87365711D01*
X208021638Y-88104317D01*
G36*
X208021638Y-88104317D02*
G01*
X206052022Y-88451614D01*
X205991246Y-88106931D01*
X206315709Y-87643549D01*
X207891402Y-87365711D01*
X208021638Y-88104317D01*
G37*
%TO.C,L25*%
X155160252Y-121575308D02*
X155030016Y-122313913D01*
X153060400Y-121966617D01*
X153121177Y-121621934D01*
X153584559Y-121297473D01*
X155160252Y-121575308D01*
G36*
X155160252Y-121575308D02*
G01*
X155030016Y-122313913D01*
X153060400Y-121966617D01*
X153121177Y-121621934D01*
X153584559Y-121297473D01*
X155160252Y-121575308D01*
G37*
%TO.C,L37*%
X143060252Y-80775308D02*
X142930016Y-81513913D01*
X140960400Y-81166617D01*
X141021177Y-80821934D01*
X141484559Y-80497473D01*
X143060252Y-80775308D01*
G36*
X143060252Y-80775308D02*
G01*
X142930016Y-81513913D01*
X140960400Y-81166617D01*
X141021177Y-80821934D01*
X141484559Y-80497473D01*
X143060252Y-80775308D01*
G37*
%TO.C,L21*%
X228421638Y-94304317D02*
X226452022Y-94651614D01*
X226391246Y-94306931D01*
X226715709Y-93843549D01*
X228291402Y-93565711D01*
X228421638Y-94304317D01*
G36*
X228421638Y-94304317D02*
G01*
X226452022Y-94651614D01*
X226391246Y-94306931D01*
X226715709Y-93843549D01*
X228291402Y-93565711D01*
X228421638Y-94304317D01*
G37*
%TO.C,L38*%
X125960252Y-68175308D02*
X125830016Y-68913913D01*
X123860400Y-68566617D01*
X123921177Y-68221934D01*
X124384559Y-67897473D01*
X125960252Y-68175308D01*
G36*
X125960252Y-68175308D02*
G01*
X125830016Y-68913913D01*
X123860400Y-68566617D01*
X123921177Y-68221934D01*
X124384559Y-67897473D01*
X125960252Y-68175308D01*
G37*
%TO.C,L10*%
X221821638Y-56704317D02*
X219852022Y-57051614D01*
X219791246Y-56706931D01*
X220115709Y-56243549D01*
X221691402Y-55965711D01*
X221821638Y-56704317D01*
G36*
X221821638Y-56704317D02*
G01*
X219852022Y-57051614D01*
X219791246Y-56706931D01*
X220115709Y-56243549D01*
X221691402Y-55965711D01*
X221821638Y-56704317D01*
G37*
%TO.C,L26*%
X136460252Y-118175308D02*
X136330016Y-118913913D01*
X134360400Y-118566617D01*
X134421177Y-118221934D01*
X134884559Y-117897473D01*
X136460252Y-118175308D01*
G36*
X136460252Y-118175308D02*
G01*
X136330016Y-118913913D01*
X134360400Y-118566617D01*
X134421177Y-118221934D01*
X134884559Y-117897473D01*
X136460252Y-118175308D01*
G37*
%TO.C,L12*%
X187621638Y-82104317D02*
X185652022Y-82451614D01*
X185591246Y-82106931D01*
X185915709Y-81643549D01*
X187491402Y-81365711D01*
X187621638Y-82104317D01*
G36*
X187621638Y-82104317D02*
G01*
X185652022Y-82451614D01*
X185591246Y-82106931D01*
X185915709Y-81643549D01*
X187491402Y-81365711D01*
X187621638Y-82104317D01*
G37*
%TO.C,L43*%
X51660252Y-50175308D02*
X51530016Y-50913913D01*
X49560400Y-50566617D01*
X49621177Y-50221934D01*
X50084559Y-49897473D01*
X51660252Y-50175308D01*
G36*
X51660252Y-50175308D02*
G01*
X51530016Y-50913913D01*
X49560400Y-50566617D01*
X49621177Y-50221934D01*
X50084559Y-49897473D01*
X51660252Y-50175308D01*
G37*
%TO.C,L19*%
X268421638Y-101504317D02*
X266452022Y-101851614D01*
X266391246Y-101506931D01*
X266715709Y-101043549D01*
X268291402Y-100765711D01*
X268421638Y-101504317D01*
G36*
X268421638Y-101504317D02*
G01*
X266452022Y-101851614D01*
X266391246Y-101506931D01*
X266715709Y-101043549D01*
X268291402Y-100765711D01*
X268421638Y-101504317D01*
G37*
%TO.C,L48*%
X146328252Y-61830055D02*
X146198016Y-62568660D01*
X144228400Y-62221364D01*
X144289177Y-61876681D01*
X144752559Y-61552220D01*
X146328252Y-61830055D01*
G36*
X146328252Y-61830055D02*
G01*
X146198016Y-62568660D01*
X144228400Y-62221364D01*
X144289177Y-61876681D01*
X144752559Y-61552220D01*
X146328252Y-61830055D01*
G37*
%TO.C,L44*%
X72160252Y-44075308D02*
X72030016Y-44813913D01*
X70060400Y-44466617D01*
X70121177Y-44121934D01*
X70584559Y-43797473D01*
X72160252Y-44075308D01*
G36*
X72160252Y-44075308D02*
G01*
X72030016Y-44813913D01*
X70060400Y-44466617D01*
X70121177Y-44121934D01*
X70584559Y-43797473D01*
X72160252Y-44075308D01*
G37*
%TO.C,L2*%
X201421638Y-50504317D02*
X199452022Y-50851614D01*
X199391246Y-50506931D01*
X199715709Y-50043549D01*
X201291402Y-49765711D01*
X201421638Y-50504317D01*
G36*
X201421638Y-50504317D02*
G01*
X199452022Y-50851614D01*
X199391246Y-50506931D01*
X199715709Y-50043549D01*
X201291402Y-49765711D01*
X201421638Y-50504317D01*
G37*
%TO.C,L27*%
X119260252Y-105575308D02*
X119130016Y-106313913D01*
X117160400Y-105966617D01*
X117221177Y-105621934D01*
X117684559Y-105297473D01*
X119260252Y-105575308D01*
G36*
X119260252Y-105575308D02*
G01*
X119130016Y-106313913D01*
X117160400Y-105966617D01*
X117221177Y-105621934D01*
X117684559Y-105297473D01*
X119260252Y-105575308D01*
G37*
%TO.C,L32*%
X65560252Y-81275308D02*
X65430016Y-82013913D01*
X63460400Y-81666617D01*
X63521177Y-81321934D01*
X63984559Y-80997473D01*
X65560252Y-81275308D01*
G36*
X65560252Y-81275308D02*
G01*
X65430016Y-82013913D01*
X63460400Y-81666617D01*
X63521177Y-81321934D01*
X63984559Y-80997473D01*
X65560252Y-81275308D01*
G37*
%TO.C,L1*%
X184289638Y-63304317D02*
X182320022Y-63651614D01*
X182259246Y-63306931D01*
X182583709Y-62843549D01*
X184159402Y-62565711D01*
X184289638Y-63304317D01*
G36*
X184289638Y-63304317D02*
G01*
X182320022Y-63651614D01*
X182259246Y-63306931D01*
X182583709Y-62843549D01*
X184159402Y-62565711D01*
X184289638Y-63304317D01*
G37*
%TO.C,L40*%
X88460252Y-61375308D02*
X88330016Y-62113913D01*
X86360400Y-61766617D01*
X86421177Y-61421934D01*
X86884559Y-61097473D01*
X88460252Y-61375308D01*
G36*
X88460252Y-61375308D02*
G01*
X88330016Y-62113913D01*
X86360400Y-61766617D01*
X86421177Y-61421934D01*
X86884559Y-61097473D01*
X88460252Y-61375308D01*
G37*
%TO.C,L23*%
X194221638Y-119504317D02*
X192252022Y-119851614D01*
X192191246Y-119506931D01*
X192515709Y-119043549D01*
X194091402Y-118765711D01*
X194221638Y-119504317D01*
G36*
X194221638Y-119504317D02*
G01*
X192252022Y-119851614D01*
X192191246Y-119506931D01*
X192515709Y-119043549D01*
X194091402Y-118765711D01*
X194221638Y-119504317D01*
G37*
%TO.C,L24*%
X175521638Y-122904317D02*
X173552022Y-123251614D01*
X173491246Y-122906931D01*
X173815709Y-122443549D01*
X175391402Y-122165711D01*
X175521638Y-122904317D01*
G36*
X175521638Y-122904317D02*
G01*
X173552022Y-123251614D01*
X173491246Y-122906931D01*
X173815709Y-122443549D01*
X175391402Y-122165711D01*
X175521638Y-122904317D01*
G37*
%TO.C,L41*%
X68760252Y-62775308D02*
X68630016Y-63513913D01*
X66660400Y-63166617D01*
X66721177Y-62821934D01*
X67184559Y-62497473D01*
X68760252Y-62775308D01*
G36*
X68760252Y-62775308D02*
G01*
X68630016Y-63513913D01*
X66660400Y-63166617D01*
X66721177Y-62821934D01*
X67184559Y-62497473D01*
X68760252Y-62775308D01*
G37*
%TO.C,L9*%
X242221638Y-62704317D02*
X240252022Y-63051614D01*
X240191246Y-62706931D01*
X240515709Y-62243549D01*
X242091402Y-61965711D01*
X242221638Y-62704317D01*
G36*
X242221638Y-62704317D02*
G01*
X240252022Y-63051614D01*
X240191246Y-62706931D01*
X240515709Y-62243549D01*
X242091402Y-61965711D01*
X242221638Y-62704317D01*
G37*
%TO.C,L36*%
X144739600Y-102133383D02*
X144678823Y-102478066D01*
X144215441Y-102802527D01*
X142639748Y-102524692D01*
X142769984Y-101786087D01*
X144739600Y-102133383D01*
G36*
X144739600Y-102133383D02*
G01*
X144678823Y-102478066D01*
X144215441Y-102802527D01*
X142639748Y-102524692D01*
X142769984Y-101786087D01*
X144739600Y-102133383D01*
G37*
%TO.C,L22*%
X211421638Y-106904317D02*
X209452022Y-107251614D01*
X209391246Y-106906931D01*
X209715709Y-106443549D01*
X211291402Y-106165711D01*
X211421638Y-106904317D01*
G36*
X211421638Y-106904317D02*
G01*
X209452022Y-107251614D01*
X209391246Y-106906931D01*
X209715709Y-106443549D01*
X211291402Y-106165711D01*
X211421638Y-106904317D01*
G37*
%TO.C,L33*%
X85060252Y-79975308D02*
X84930016Y-80713913D01*
X82960400Y-80366617D01*
X83021177Y-80021934D01*
X83484559Y-79697473D01*
X85060252Y-79975308D01*
G36*
X85060252Y-79975308D02*
G01*
X84930016Y-80713913D01*
X82960400Y-80366617D01*
X83021177Y-80021934D01*
X83484559Y-79697473D01*
X85060252Y-79975308D01*
G37*
%TO.C,L30*%
X62160252Y-100375308D02*
X62030016Y-101113913D01*
X60060400Y-100766617D01*
X60121177Y-100421934D01*
X60584559Y-100097473D01*
X62160252Y-100375308D01*
G36*
X62160252Y-100375308D02*
G01*
X62030016Y-101113913D01*
X60060400Y-100766617D01*
X60121177Y-100421934D01*
X60584559Y-100097473D01*
X62160252Y-100375308D01*
G37*
%TO.C,L4*%
X239021638Y-43904317D02*
X237052022Y-44251614D01*
X236991246Y-43906931D01*
X237315709Y-43443549D01*
X238891402Y-43165711D01*
X239021638Y-43904317D01*
G36*
X239021638Y-43904317D02*
G01*
X237052022Y-44251614D01*
X236991246Y-43906931D01*
X237315709Y-43443549D01*
X238891402Y-43165711D01*
X239021638Y-43904317D01*
G37*
%TO.C,L13*%
X191021638Y-100704317D02*
X189052022Y-101051614D01*
X188991246Y-100706931D01*
X189315709Y-100243549D01*
X190891402Y-99965711D01*
X191021638Y-100704317D01*
G36*
X191021638Y-100704317D02*
G01*
X189052022Y-101051614D01*
X188991246Y-100706931D01*
X189315709Y-100243549D01*
X190891402Y-99965711D01*
X191021638Y-100704317D01*
G37*
%TO.C,L47*%
X129260252Y-49375308D02*
X129130016Y-50113913D01*
X127160400Y-49766617D01*
X127221177Y-49421934D01*
X127684559Y-49097473D01*
X129260252Y-49375308D01*
G36*
X129260252Y-49375308D02*
G01*
X129130016Y-50113913D01*
X127160400Y-49766617D01*
X127221177Y-49421934D01*
X127684559Y-49097473D01*
X129260252Y-49375308D01*
G37*
%TO.C,L29*%
X81760252Y-98975308D02*
X81630016Y-99713913D01*
X79660400Y-99366617D01*
X79721177Y-99021934D01*
X80184559Y-98697473D01*
X81760252Y-98975308D01*
G36*
X81760252Y-98975308D02*
G01*
X81630016Y-99713913D01*
X79660400Y-99366617D01*
X79721177Y-99021934D01*
X80184559Y-98697473D01*
X81760252Y-98975308D01*
G37*
%TO.C,L31*%
X45060252Y-87630055D02*
X44930016Y-88368660D01*
X42960400Y-88021364D01*
X43021177Y-87676681D01*
X43484559Y-87352220D01*
X45060252Y-87630055D01*
G36*
X45060252Y-87630055D02*
G01*
X44930016Y-88368660D01*
X42960400Y-88021364D01*
X43021177Y-87676681D01*
X43484559Y-87352220D01*
X45060252Y-87630055D01*
G37*
%TO.C,L45*%
X91760252Y-42575308D02*
X91630016Y-43313913D01*
X89660400Y-42966617D01*
X89721177Y-42621934D01*
X90184559Y-42297473D01*
X91760252Y-42575308D01*
G36*
X91760252Y-42575308D02*
G01*
X91630016Y-43313913D01*
X89660400Y-42966617D01*
X89721177Y-42621934D01*
X90184559Y-42297473D01*
X91760252Y-42575308D01*
G37*
%TO.C,L17*%
X265221638Y-82904317D02*
X263252022Y-83251614D01*
X263191246Y-82906931D01*
X263515709Y-82443549D01*
X265091402Y-82165711D01*
X265221638Y-82904317D01*
G36*
X265221638Y-82904317D02*
G01*
X263252022Y-83251614D01*
X263191246Y-82906931D01*
X263515709Y-82443549D01*
X265091402Y-82165711D01*
X265221638Y-82904317D01*
G37*
%TO.C,L20*%
X248821638Y-100304317D02*
X246852022Y-100651614D01*
X246791246Y-100306931D01*
X247115709Y-99843549D01*
X248691402Y-99565711D01*
X248821638Y-100304317D01*
G36*
X248821638Y-100304317D02*
G01*
X246852022Y-100651614D01*
X246791246Y-100306931D01*
X247115709Y-99843549D01*
X248691402Y-99565711D01*
X248821638Y-100304317D01*
G37*
%TO.C,L5*%
X258521638Y-45304317D02*
X256552022Y-45651614D01*
X256491246Y-45306931D01*
X256815709Y-44843549D01*
X258391402Y-44565711D01*
X258521638Y-45304317D01*
G36*
X258521638Y-45304317D02*
G01*
X256552022Y-45651614D01*
X256491246Y-45306931D01*
X256815709Y-44843549D01*
X258391402Y-44565711D01*
X258521638Y-45304317D01*
G37*
%TO.C,L8*%
X261821638Y-64123117D02*
X259852022Y-64470414D01*
X259791246Y-64125731D01*
X260115709Y-63662349D01*
X261691402Y-63384511D01*
X261821638Y-64123117D01*
G36*
X261821638Y-64123117D02*
G01*
X259852022Y-64470414D01*
X259791246Y-64125731D01*
X260115709Y-63662349D01*
X261691402Y-63384511D01*
X261821638Y-64123117D01*
G37*
%TO.C,L46*%
X112160252Y-36575308D02*
X112030016Y-37313913D01*
X110060400Y-36966617D01*
X110121177Y-36621934D01*
X110584559Y-36297473D01*
X112160252Y-36575308D01*
G36*
X112160252Y-36575308D02*
G01*
X112030016Y-37313913D01*
X110060400Y-36966617D01*
X110121177Y-36621934D01*
X110584559Y-36297473D01*
X112160252Y-36575308D01*
G37*
%TO.C,L6*%
X278989638Y-51304317D02*
X277020022Y-51651614D01*
X276959246Y-51306931D01*
X277283709Y-50843549D01*
X278859402Y-50565711D01*
X278989638Y-51304317D01*
G36*
X278989638Y-51304317D02*
G01*
X277020022Y-51651614D01*
X276959246Y-51306931D01*
X277283709Y-50843549D01*
X278859402Y-50565711D01*
X278989638Y-51304317D01*
G37*
%TO.C,L42*%
X48360252Y-68975308D02*
X48230016Y-69713913D01*
X46260400Y-69366617D01*
X46321177Y-69021934D01*
X46784559Y-68697473D01*
X48360252Y-68975308D01*
G36*
X48360252Y-68975308D02*
G01*
X48230016Y-69713913D01*
X46260400Y-69366617D01*
X46321177Y-69021934D01*
X46784559Y-68697473D01*
X48360252Y-68975308D01*
G37*
%TO.C,L39*%
X108860252Y-55075308D02*
X108730016Y-55813913D01*
X106760400Y-55466617D01*
X106821177Y-55121934D01*
X107284559Y-54797473D01*
X108860252Y-55075308D01*
G36*
X108860252Y-55075308D02*
G01*
X108730016Y-55813913D01*
X106760400Y-55466617D01*
X106821177Y-55121934D01*
X107284559Y-54797473D01*
X108860252Y-55075308D01*
G37*
%TO.C,L18*%
X285621638Y-88904317D02*
X283652022Y-89251614D01*
X283591246Y-88906931D01*
X283915709Y-88443549D01*
X285491402Y-88165711D01*
X285621638Y-88904317D01*
G36*
X285621638Y-88904317D02*
G01*
X283652022Y-89251614D01*
X283591246Y-88906931D01*
X283915709Y-88443549D01*
X285491402Y-88165711D01*
X285621638Y-88904317D01*
G37*
%TO.C,L15*%
X225121638Y-75304317D02*
X223152022Y-75651614D01*
X223091246Y-75306931D01*
X223415709Y-74843549D01*
X224991402Y-74565711D01*
X225121638Y-75304317D01*
G36*
X225121638Y-75304317D02*
G01*
X223152022Y-75651614D01*
X223091246Y-75306931D01*
X223415709Y-74843549D01*
X224991402Y-74565711D01*
X225121638Y-75304317D01*
G37*
%TO.C,L35*%
X122560252Y-86775308D02*
X122430016Y-87513913D01*
X120460400Y-87166617D01*
X120521177Y-86821934D01*
X120984559Y-86497473D01*
X122560252Y-86775308D01*
G36*
X122560252Y-86775308D02*
G01*
X122430016Y-87513913D01*
X120460400Y-87166617D01*
X120521177Y-86821934D01*
X120984559Y-86497473D01*
X122560252Y-86775308D01*
G37*
%TO.C,L7*%
X282221638Y-70104317D02*
X280252022Y-70451614D01*
X280191246Y-70106931D01*
X280515709Y-69643549D01*
X282091402Y-69365711D01*
X282221638Y-70104317D01*
G36*
X282221638Y-70104317D02*
G01*
X280252022Y-70451614D01*
X280191246Y-70106931D01*
X280515709Y-69643549D01*
X282091402Y-69365711D01*
X282221638Y-70104317D01*
G37*
%TO.C,L3*%
X218621638Y-37904317D02*
X216652022Y-38251614D01*
X216591246Y-37906931D01*
X216915709Y-37443549D01*
X218491402Y-37165711D01*
X218621638Y-37904317D01*
G36*
X218621638Y-37904317D02*
G01*
X216652022Y-38251614D01*
X216591246Y-37906931D01*
X216915709Y-37443549D01*
X218491402Y-37165711D01*
X218621638Y-37904317D01*
G37*
%TO.C,L11*%
X204689638Y-69304317D02*
X202720022Y-69651614D01*
X202659246Y-69306931D01*
X202983709Y-68843549D01*
X204559402Y-68565711D01*
X204689638Y-69304317D01*
G36*
X204689638Y-69304317D02*
G01*
X202720022Y-69651614D01*
X202659246Y-69306931D01*
X202983709Y-68843549D01*
X204559402Y-68565711D01*
X204689638Y-69304317D01*
G37*
%TO.C,L16*%
X245521638Y-81204317D02*
X243552022Y-81551614D01*
X243491246Y-81206931D01*
X243815709Y-80743549D01*
X245391402Y-80465711D01*
X245521638Y-81204317D01*
G36*
X245521638Y-81204317D02*
G01*
X243552022Y-81551614D01*
X243491246Y-81206931D01*
X243815709Y-80743549D01*
X245391402Y-80465711D01*
X245521638Y-81204317D01*
G37*
%TD*%
D11*
%TO.C,RC6-2*%
X131434036Y-107920884D03*
X131868637Y-108911400D03*
X142443904Y-111994617D03*
X145030453Y-112298381D03*
%TD*%
D12*
%TO.C,RC0-4*%
X179323763Y-73279020D03*
X180070931Y-74061158D03*
X191062954Y-73341480D03*
X193597407Y-72742276D03*
%TD*%
%TO.C,RC6-5*%
X277261699Y-80189765D03*
X278008867Y-80971903D03*
X289000890Y-80252225D03*
X291535343Y-79653021D03*
%TD*%
D11*
%TO.C,RC1-0*%
X43420094Y-58549866D03*
X43854695Y-59540382D03*
X54429962Y-62623599D03*
X57016511Y-62927363D03*
%TD*%
D12*
%TO.C,RC1-6*%
X203046347Y-98111903D03*
X203793515Y-98894041D03*
X214785538Y-98174363D03*
X217319991Y-97575159D03*
%TD*%
D11*
%TO.C,RC1-3*%
X73498274Y-107377184D03*
X73932875Y-108367700D03*
X84508142Y-111450917D03*
X87094691Y-111754681D03*
%TD*%
%TO.C,RC6-1*%
X134742034Y-89160296D03*
X135176635Y-90150812D03*
X145751902Y-93234029D03*
X148338451Y-93537793D03*
%TD*%
D12*
%TO.C,RC6-4*%
X273953701Y-61429178D03*
X274700869Y-62211316D03*
X285692892Y-61491638D03*
X288227345Y-60892434D03*
%TD*%
%TO.C,RC2-4*%
X213536941Y-47902436D03*
X214284109Y-48684574D03*
X225276132Y-47964896D03*
X227810585Y-47365692D03*
%TD*%
%TO.C,RC4-7*%
X243875521Y-110256496D03*
X244622689Y-111038634D03*
X255614712Y-110318956D03*
X258149165Y-109719752D03*
%TD*%
D11*
%TO.C,RC5-1*%
X117635445Y-76472004D03*
X118070046Y-77462520D03*
X128645313Y-80545737D03*
X131231862Y-80849501D03*
%TD*%
D12*
%TO.C,RC2-6*%
X220152936Y-85423612D03*
X220900104Y-86205750D03*
X231892127Y-85486072D03*
X234426580Y-84886868D03*
%TD*%
D11*
%TO.C,RC0-3*%
X53910687Y-108759333D03*
X54345288Y-109749849D03*
X64920555Y-112833066D03*
X67507104Y-113136830D03*
%TD*%
D12*
%TO.C,RC1-5*%
X199738350Y-79351316D03*
X200485518Y-80133454D03*
X211477541Y-79413776D03*
X214011994Y-78814572D03*
%TD*%
D11*
%TO.C,RC5-2*%
X114327447Y-95232592D03*
X114762048Y-96223108D03*
X125337315Y-99306325D03*
X127923864Y-99610089D03*
%TD*%
D12*
%TO.C,RC0-6*%
X185939759Y-110800195D03*
X186686927Y-111582333D03*
X197678950Y-110862655D03*
X200213403Y-110263451D03*
%TD*%
D11*
%TO.C,RC2-3*%
X93912861Y-101304888D03*
X94347462Y-102295404D03*
X104922729Y-105378621D03*
X107509278Y-105682385D03*
%TD*%
%TO.C,RC0-1*%
X40112096Y-77310454D03*
X40546697Y-78300970D03*
X51121964Y-81384187D03*
X53708513Y-81687951D03*
%TD*%
D12*
%TO.C,RC3-5*%
X237259525Y-72735320D03*
X238006693Y-73517458D03*
X248998716Y-72797780D03*
X251533169Y-72198576D03*
%TD*%
D11*
%TO.C,RC3-2*%
X76806272Y-88616596D03*
X77240873Y-89607112D03*
X87816140Y-92690329D03*
X90402689Y-92994093D03*
%TD*%
D12*
%TO.C,RC1-7*%
X189280347Y-129562197D03*
X190027515Y-130344335D03*
X201019538Y-129624657D03*
X203553991Y-129025453D03*
%TD*%
D11*
%TO.C,RC6-3*%
X146908618Y-129951196D03*
X147343219Y-130941712D03*
X157918486Y-134024929D03*
X160505035Y-134328693D03*
%TD*%
%TO.C,RC4-1*%
X100528856Y-63783713D03*
X100963457Y-64774229D03*
X111538724Y-67857446D03*
X114125273Y-68161210D03*
%TD*%
D12*
%TO.C,RC1-4*%
X196430352Y-60590728D03*
X197177520Y-61372866D03*
X208169543Y-60653188D03*
X210703996Y-60053984D03*
%TD*%
%TO.C,RC4-6*%
X263463108Y-111638645D03*
X264210276Y-112420783D03*
X275202299Y-111701105D03*
X277736752Y-111101901D03*
%TD*%
D11*
%TO.C,RC3-1*%
X80114270Y-69856009D03*
X80548871Y-70846525D03*
X91124138Y-73929742D03*
X93710687Y-74233506D03*
%TD*%
%TO.C,RC5-3*%
X128148030Y-126643198D03*
X128582631Y-127633714D03*
X139157898Y-130716931D03*
X141744447Y-131020695D03*
%TD*%
%TO.C,RC4-3*%
X111019450Y-113993180D03*
X111454051Y-114983696D03*
X122029318Y-118066913D03*
X124615867Y-118370677D03*
%TD*%
%TO.C,RC1-2*%
X57218685Y-89998745D03*
X57653286Y-90989261D03*
X68228553Y-94072478D03*
X70815102Y-94376242D03*
%TD*%
D12*
%TO.C,RC2-7*%
X206354345Y-116872491D03*
X207101513Y-117654629D03*
X218093536Y-116934951D03*
X220627989Y-116335747D03*
%TD*%
D11*
%TO.C,RC2-1*%
X60526683Y-71238158D03*
X60961284Y-72228674D03*
X71536551Y-75311891D03*
X74123100Y-75615655D03*
%TD*%
D12*
%TO.C,RC5-4*%
X253539114Y-55356882D03*
X254286282Y-56139020D03*
X265278305Y-55419342D03*
X267812758Y-54820138D03*
%TD*%
%TO.C,RC5-7*%
X260155110Y-92878057D03*
X260902278Y-93660195D03*
X271894301Y-92940517D03*
X274428754Y-92341313D03*
%TD*%
%TO.C,RC4-5*%
X280569697Y-98950353D03*
X281316865Y-99732491D03*
X292308888Y-99012813D03*
X294843341Y-98413609D03*
%TD*%
D11*
%TO.C,RC5-0*%
X120943443Y-57711416D03*
X121378044Y-58701932D03*
X131953311Y-61785149D03*
X134539860Y-62088913D03*
%TD*%
%TO.C,RC6-0*%
X138050032Y-70399708D03*
X138484633Y-71390224D03*
X149059900Y-74473441D03*
X151646449Y-74777205D03*
%TD*%
%TO.C,RC2-0*%
X63834680Y-52477570D03*
X64269281Y-53468086D03*
X74844548Y-56551303D03*
X77431097Y-56855067D03*
%TD*%
%TO.C,RC0-2*%
X36804098Y-96071042D03*
X37238699Y-97061558D03*
X47813966Y-100144775D03*
X50400515Y-100448539D03*
%TD*%
D12*
%TO.C,RC3-7*%
X223460934Y-104184200D03*
X224208102Y-104966338D03*
X235200125Y-104246660D03*
X237734578Y-103647456D03*
%TD*%
%TO.C,RC2-5*%
X216844938Y-66663024D03*
X217592106Y-67445162D03*
X228584129Y-66725484D03*
X231118582Y-66126280D03*
%TD*%
D11*
%TO.C,RC4-2*%
X97220859Y-82544300D03*
X97655460Y-83534816D03*
X108230727Y-86618033D03*
X110817276Y-86921797D03*
%TD*%
%TO.C,RC4-0*%
X103836854Y-45023125D03*
X104271455Y-46013641D03*
X114846722Y-49096858D03*
X117433271Y-49400622D03*
%TD*%
D12*
%TO.C,RC3-4*%
X233951527Y-53974732D03*
X234698695Y-54756870D03*
X245690718Y-54037192D03*
X248225171Y-53437988D03*
%TD*%
%TO.C,RC0-7*%
X170519759Y-132870195D03*
X171266927Y-133652333D03*
X182258950Y-132932655D03*
X184793403Y-132333451D03*
%TD*%
%TO.C,RC3-6*%
X240567523Y-91495908D03*
X241314691Y-92278046D03*
X252306714Y-91558368D03*
X254841167Y-90959164D03*
%TD*%
D11*
%TO.C,RC3-0*%
X83422268Y-51095421D03*
X83856869Y-52085937D03*
X94432136Y-55169154D03*
X97018685Y-55472918D03*
%TD*%
D12*
%TO.C,RC0-5*%
X182631761Y-92039607D03*
X183378929Y-92821745D03*
X194370952Y-92102067D03*
X196905405Y-91502863D03*
%TD*%
%TO.C,RC5-6*%
X256847112Y-74117469D03*
X257594280Y-74899607D03*
X268586303Y-74179929D03*
X271120756Y-73580725D03*
%TD*%
D13*
%TO.C,L34*%
X109877528Y-75317345D03*
D14*
X104157201Y-76085695D03*
X109573644Y-77040758D03*
%TD*%
D15*
%TO.C,D45*%
X296634048Y-95017669D03*
X294565952Y-95382331D03*
%TD*%
D13*
%TO.C,L28*%
X106477528Y-93917345D03*
D14*
X100757201Y-94685695D03*
X106173644Y-95640758D03*
%TD*%
D16*
%TO.C,L14*%
X212338914Y-86962280D03*
D17*
X207226356Y-89640758D03*
X212642799Y-88685695D03*
%TD*%
D13*
%TO.C,L25*%
X159477528Y-122717345D03*
D14*
X153757201Y-123485695D03*
X159173644Y-124440758D03*
%TD*%
D13*
%TO.C,L37*%
X147377528Y-81917345D03*
D14*
X141657201Y-82685695D03*
X147073644Y-83640758D03*
%TD*%
D16*
%TO.C,L21*%
X232738914Y-93162280D03*
D17*
X227626356Y-95840758D03*
X233042799Y-94885695D03*
%TD*%
D18*
%TO.C,D50*%
X136234048Y-66404662D03*
X134165952Y-66040000D03*
%TD*%
D19*
%TO.C,DI3*%
X160020000Y-99822000D03*
X157920000Y-99822000D03*
%TD*%
D20*
%TO.C,D17*%
X172710000Y-115062000D03*
X174810000Y-115062000D03*
%TD*%
D15*
%TO.C,D54*%
X269534048Y-51417669D03*
X267465952Y-51782331D03*
%TD*%
%TO.C,D27*%
X222434048Y-112817669D03*
X220365952Y-113182331D03*
%TD*%
D13*
%TO.C,L38*%
X130277528Y-69317345D03*
D14*
X124557201Y-70085695D03*
X129973644Y-71040758D03*
%TD*%
D18*
%TO.C,D60*%
X153434048Y-78922331D03*
X151365952Y-78557669D03*
%TD*%
%TO.C,D51*%
X132934048Y-84182331D03*
X130865952Y-83817669D03*
%TD*%
D15*
%TO.C,D46*%
X279534048Y-107717669D03*
X277465952Y-108082331D03*
%TD*%
D18*
%TO.C,D31*%
X95014048Y-78922331D03*
X92945952Y-78557669D03*
%TD*%
D15*
%TO.C,D47*%
X259834048Y-106117669D03*
X257765952Y-106482331D03*
%TD*%
%TO.C,D16*%
X219134048Y-94217669D03*
X217065952Y-94582331D03*
%TD*%
D20*
%TO.C,DS7*%
X172710000Y-109982000D03*
X174810000Y-109982000D03*
%TD*%
D16*
%TO.C,L10*%
X226138914Y-55562280D03*
D17*
X221026356Y-58240758D03*
X226442799Y-57285695D03*
%TD*%
D13*
%TO.C,L26*%
X140777528Y-119317345D03*
D14*
X135057201Y-120085695D03*
X140473644Y-121040758D03*
%TD*%
D15*
%TO.C,D35*%
X253334048Y-68817669D03*
X251265952Y-69182331D03*
%TD*%
D16*
%TO.C,L12*%
X191938914Y-80962280D03*
D17*
X186826356Y-83640758D03*
X192242799Y-82685695D03*
%TD*%
D20*
%TO.C,DS6*%
X172710000Y-107442000D03*
X174810000Y-107442000D03*
%TD*%
%TO.C,DS0*%
X172710000Y-92202000D03*
X174810000Y-92202000D03*
%TD*%
D13*
%TO.C,L43*%
X55977528Y-51317345D03*
D14*
X50257201Y-52085695D03*
X55673644Y-53040758D03*
%TD*%
D19*
%TO.C,D63*%
X160078000Y-115062000D03*
X157978000Y-115062000D03*
%TD*%
D20*
%TO.C,DS3*%
X172710000Y-99822000D03*
X174810000Y-99822000D03*
%TD*%
D16*
%TO.C,L19*%
X272738914Y-100362280D03*
D17*
X267626356Y-103040758D03*
X273042799Y-102085695D03*
%TD*%
D20*
%TO.C,D7*%
X172710000Y-112522000D03*
X174810000Y-112522000D03*
%TD*%
D19*
%TO.C,D53*%
X160078000Y-112522000D03*
X157978000Y-112522000D03*
%TD*%
D13*
%TO.C,L48*%
X150645528Y-62972092D03*
D14*
X144925201Y-63740442D03*
X150341644Y-64695505D03*
%TD*%
D15*
%TO.C,D24*%
X229634048Y-44217669D03*
X227565952Y-44582331D03*
%TD*%
D13*
%TO.C,L44*%
X76477528Y-45217345D03*
D14*
X70757201Y-45985695D03*
X76173644Y-46940758D03*
%TD*%
D18*
%TO.C,D21*%
X75834048Y-80192331D03*
X73765952Y-79827669D03*
%TD*%
D16*
%TO.C,L2*%
X205738914Y-49362280D03*
D17*
X200626356Y-52040758D03*
X206042799Y-51085695D03*
%TD*%
D13*
%TO.C,L27*%
X123577528Y-106717345D03*
D14*
X117857201Y-107485695D03*
X123273644Y-108440758D03*
%TD*%
D13*
%TO.C,L32*%
X69877528Y-82417345D03*
D14*
X64157201Y-83185695D03*
X69573644Y-84140758D03*
%TD*%
D18*
%TO.C,D52*%
X129758980Y-102870000D03*
X127690884Y-102505338D03*
%TD*%
D16*
%TO.C,L1*%
X188606914Y-62162280D03*
D17*
X183494356Y-64840758D03*
X188910799Y-63885695D03*
%TD*%
D13*
%TO.C,L40*%
X92777528Y-62517345D03*
D14*
X87057201Y-63285695D03*
X92473644Y-64240758D03*
%TD*%
D16*
%TO.C,L23*%
X198538914Y-118362280D03*
D17*
X193426356Y-121040758D03*
X198842799Y-120085695D03*
%TD*%
D15*
%TO.C,D36*%
X256534048Y-87417669D03*
X254465952Y-87782331D03*
%TD*%
D16*
%TO.C,L24*%
X179838914Y-121762280D03*
D17*
X174726356Y-124440758D03*
X180142799Y-123485695D03*
%TD*%
D15*
%TO.C,D26*%
X236234048Y-81317669D03*
X234165952Y-81682331D03*
%TD*%
D13*
%TO.C,L41*%
X73077528Y-63917345D03*
D14*
X67357201Y-64685695D03*
X72773644Y-65640758D03*
%TD*%
D19*
%TO.C,DI4*%
X160020000Y-102362000D03*
X157920000Y-102362000D03*
%TD*%
D15*
%TO.C,D65*%
X293334048Y-76317669D03*
X291265952Y-76682331D03*
%TD*%
D16*
%TO.C,L9*%
X246538914Y-61562280D03*
D17*
X241426356Y-64240758D03*
X246842799Y-63285695D03*
%TD*%
D18*
%TO.C,D12*%
X72154048Y-97972331D03*
X70085952Y-97607669D03*
%TD*%
D15*
%TO.C,D15*%
X215734048Y-75417669D03*
X213665952Y-75782331D03*
%TD*%
D14*
%TO.C,L36*%
X138322472Y-101382655D03*
D13*
X144042799Y-100614305D03*
X138626356Y-99659242D03*
%TD*%
D16*
%TO.C,L22*%
X215738914Y-105762280D03*
D17*
X210626356Y-108440758D03*
X216042799Y-107485695D03*
%TD*%
D15*
%TO.C,D5*%
X198734048Y-88017669D03*
X196665952Y-88382331D03*
%TD*%
%TO.C,D25*%
X232834048Y-62617669D03*
X230765952Y-62982331D03*
%TD*%
%TO.C,D56*%
X272934048Y-70217669D03*
X270865952Y-70582331D03*
%TD*%
D18*
%TO.C,D41*%
X115098096Y-72754662D03*
X113030000Y-72390000D03*
%TD*%
D13*
%TO.C,L33*%
X89377528Y-81117345D03*
D14*
X83657201Y-81885695D03*
X89073644Y-82840758D03*
%TD*%
D15*
%TO.C,D37*%
X239434048Y-100117669D03*
X237365952Y-100482331D03*
%TD*%
D20*
%TO.C,DS5*%
X172710000Y-104902000D03*
X174810000Y-104902000D03*
%TD*%
D13*
%TO.C,L30*%
X66477528Y-101517345D03*
D14*
X60757201Y-102285695D03*
X66173644Y-103240758D03*
%TD*%
D16*
%TO.C,L4*%
X243338914Y-42762280D03*
D17*
X238226356Y-45440758D03*
X243642799Y-44485695D03*
%TD*%
D16*
%TO.C,L13*%
X195338914Y-99562280D03*
D17*
X190226356Y-102240758D03*
X195642799Y-101285695D03*
%TD*%
D18*
%TO.C,D2*%
X54234048Y-103782331D03*
X52165952Y-103417669D03*
%TD*%
D13*
%TO.C,L47*%
X133577528Y-50517345D03*
D14*
X127857201Y-51285695D03*
X133273644Y-52240758D03*
%TD*%
D15*
%TO.C,D14*%
X212434048Y-56517669D03*
X210365952Y-56882331D03*
%TD*%
D13*
%TO.C,L29*%
X86077528Y-100117345D03*
D14*
X80357201Y-100885695D03*
X85773644Y-101840758D03*
%TD*%
D13*
%TO.C,L31*%
X49377528Y-88772092D03*
D14*
X43657201Y-89540442D03*
X49073644Y-90495505D03*
%TD*%
D15*
%TO.C,D64*%
X289934048Y-57417669D03*
X287865952Y-57782331D03*
%TD*%
D18*
%TO.C,D23*%
X111524048Y-103052331D03*
X109455952Y-102687669D03*
%TD*%
%TO.C,D42*%
X111524048Y-91622331D03*
X109455952Y-91257669D03*
%TD*%
%TO.C,D3*%
X70334048Y-110490000D03*
X68265952Y-110125338D03*
%TD*%
D13*
%TO.C,L45*%
X96077528Y-43717345D03*
D14*
X90357201Y-44485695D03*
X95773644Y-45440758D03*
%TD*%
D16*
%TO.C,L17*%
X269538914Y-81762280D03*
D17*
X264426356Y-84440758D03*
X269842799Y-83485695D03*
%TD*%
D19*
%TO.C,DI1*%
X160020000Y-94742000D03*
X157920000Y-94742000D03*
%TD*%
%TO.C,DI6*%
X160020000Y-107442000D03*
X157920000Y-107442000D03*
%TD*%
D16*
%TO.C,L20*%
X253138914Y-99162280D03*
D17*
X248026356Y-101840758D03*
X253442799Y-100885695D03*
%TD*%
D19*
%TO.C,DI7*%
X160020000Y-109982000D03*
X157920000Y-109982000D03*
%TD*%
D16*
%TO.C,L5*%
X262838914Y-44162280D03*
D17*
X257726356Y-46840758D03*
X263142799Y-45885695D03*
%TD*%
D18*
%TO.C,D32*%
X92134048Y-96702331D03*
X90065952Y-96337669D03*
%TD*%
D16*
%TO.C,L8*%
X266138914Y-62981080D03*
D17*
X261026356Y-65659558D03*
X266442799Y-64704495D03*
%TD*%
D20*
%TO.C,DS1*%
X172710000Y-94742000D03*
X174810000Y-94742000D03*
%TD*%
D18*
%TO.C,D61*%
X149624048Y-97972331D03*
X147555952Y-97607669D03*
%TD*%
D13*
%TO.C,L46*%
X116477528Y-37717345D03*
D14*
X110757201Y-38485695D03*
X116173644Y-39440758D03*
%TD*%
D16*
%TO.C,L6*%
X283306914Y-50162280D03*
D17*
X278194356Y-52840758D03*
X283610799Y-51885695D03*
%TD*%
D13*
%TO.C,L42*%
X52677528Y-70117345D03*
D14*
X46957201Y-70885695D03*
X52373644Y-71840758D03*
%TD*%
D13*
%TO.C,L39*%
X113177528Y-56217345D03*
D14*
X107457201Y-56985695D03*
X112873644Y-57940758D03*
%TD*%
D18*
%TO.C,D40*%
X117874048Y-53522331D03*
X115805952Y-53157669D03*
%TD*%
D15*
%TO.C,D6*%
X201909116Y-106704188D03*
X199841020Y-107068850D03*
%TD*%
%TO.C,D34*%
X249934048Y-49917669D03*
X247865952Y-50282331D03*
%TD*%
D19*
%TO.C,DI0*%
X160020000Y-92202000D03*
X157920000Y-92202000D03*
%TD*%
D16*
%TO.C,L18*%
X289938914Y-87762280D03*
D17*
X284826356Y-90440758D03*
X290242799Y-89485695D03*
%TD*%
D18*
%TO.C,D1*%
X54374048Y-86542331D03*
X52305952Y-86177669D03*
%TD*%
D16*
%TO.C,L15*%
X229438914Y-74162280D03*
D17*
X224326356Y-76840758D03*
X229742799Y-75885695D03*
%TD*%
D18*
%TO.C,D30*%
X98734048Y-59872331D03*
X96665952Y-59507669D03*
%TD*%
%TO.C,D43*%
X126764048Y-121382331D03*
X124695952Y-121017669D03*
%TD*%
D19*
%TO.C,DI2*%
X160020000Y-97282000D03*
X157920000Y-97282000D03*
%TD*%
D13*
%TO.C,L35*%
X126877528Y-87917345D03*
D14*
X121157201Y-88685695D03*
X126573644Y-89640758D03*
%TD*%
D18*
%TO.C,D10*%
X58184048Y-67492331D03*
X56115952Y-67127669D03*
%TD*%
D16*
%TO.C,L7*%
X286538914Y-68962280D03*
D17*
X281426356Y-71640758D03*
X286842799Y-70685695D03*
%TD*%
D18*
%TO.C,D62*%
X146802787Y-115752331D03*
X144734691Y-115387669D03*
%TD*%
%TO.C,D13*%
X89934048Y-109082331D03*
X87865952Y-108717669D03*
%TD*%
D15*
%TO.C,D57*%
X276134048Y-88917669D03*
X274065952Y-89282331D03*
%TD*%
D16*
%TO.C,L3*%
X222938914Y-36762280D03*
D17*
X217826356Y-39440758D03*
X223242799Y-38485695D03*
%TD*%
D20*
%TO.C,DS4*%
X172710000Y-102362000D03*
X174810000Y-102362000D03*
%TD*%
%TO.C,DS2*%
X172710000Y-97282000D03*
X174810000Y-97282000D03*
%TD*%
D16*
%TO.C,L11*%
X209006914Y-68162280D03*
D17*
X203894356Y-70840758D03*
X209310799Y-69885695D03*
%TD*%
D18*
%TO.C,D20*%
X79134048Y-61324662D03*
X77065952Y-60960000D03*
%TD*%
D15*
%TO.C,D4*%
X195334048Y-69217669D03*
X193265952Y-69582331D03*
%TD*%
D19*
%TO.C,DI5*%
X160020000Y-104902000D03*
X157920000Y-104902000D03*
%TD*%
D16*
%TO.C,L16*%
X249838914Y-80062280D03*
D17*
X244726356Y-82740758D03*
X250142799Y-81785695D03*
%TD*%
M02*
