M48
; DRILL file {KiCad 8.0.7} date 2025-02-04T22:32:58+0100
; FORMAT={-:-/ absolute / inch / decimal}
; #@! TF.CreationDate,2025-02-04T22:32:58+01:00
; #@! TF.GenerationSoftware,Kicad,Pcbnew,8.0.7
; #@! TF.FileFunction,NonPlated,1,2,NPTH
FMAT,2
INCH
; #@! TA.AperFunction,NonPlated,NPTH,ComponentDrill
T1C0.0670
; #@! TA.AperFunction,NonPlated,NPTH,ComponentDrill
T2C0.0866
; #@! TA.AperFunction,NonPlated,NPTH,ComponentDrill
T3C0.1181
; #@! TA.AperFunction,NonPlated,NPTH,ComponentDrill
T4C0.1969
%
G90
G05
T1
X1.5826Y-3.654
X1.7128Y-2.9154
X1.843Y-2.1768
X2.009Y-3.7292
X2.1393Y-2.9906
X2.256Y-4.1535
X2.2695Y-2.252
X2.3863Y-3.4149
X2.5165Y-2.6763
X2.6467Y-1.9377
X2.6825Y-4.2287
X2.8128Y-3.4901
X2.943Y-2.7515
X3.0272Y-4.0991
X3.0732Y-2.0129
X3.1574Y-3.3605
X3.2877Y-2.6219
X3.4179Y-1.8833
X3.4537Y-4.1743
X3.5839Y-3.4357
X3.7142Y-2.6971
X3.8309Y-3.86
X3.8444Y-1.9585
X3.9612Y-3.1214
X4.0914Y-2.3828
X4.2216Y-1.6442
X4.2574Y-3.9352
X4.3877Y-3.1966
X4.5044Y-4.3596
X4.5179Y-2.458
X4.6347Y-3.621
X4.6481Y-1.7194
X4.7649Y-2.8823
X4.8951Y-2.1437
X4.9309Y-4.4348
X5.0611Y-3.6962
X5.1788Y-4.8576
X5.1914Y-2.9575
X5.3081Y-4.1205
X5.3216Y-2.2189
X5.4384Y-3.3819
X5.5686Y-2.6433
X5.6053Y-4.9328
X5.7346Y-4.1957
X5.8649Y-3.4571
X5.9174Y-4.9878
X5.9951Y-2.7185
X6.3439Y-5.063
X6.795Y-5.0648
X7.1416Y-2.7187
X7.2215Y-4.9896
X7.2718Y-3.4573
X7.4021Y-4.1959
X7.5336Y-4.9346
X7.5681Y-2.6435
X7.6983Y-3.3821
X7.8151Y-2.2192
X7.8286Y-4.1207
X7.9453Y-2.9578
X7.9601Y-4.8594
X8.0756Y-3.6964
X8.2058Y-4.435
X8.2416Y-2.144
X8.3718Y-2.8826
X8.4886Y-1.7196
X8.5021Y-3.6212
X8.6188Y-2.4582
X8.6323Y-4.3598
X8.7491Y-3.1968
X8.8793Y-3.9354
X8.9151Y-1.6444
X9.0453Y-2.383
X9.1755Y-3.1216
X9.2923Y-1.9587
X9.3058Y-3.8602
X9.4225Y-2.6973
X9.5528Y-3.4359
X9.683Y-4.1745
X9.7188Y-1.8835
X9.849Y-2.6221
X9.9793Y-3.3607
X10.0635Y-2.0131
X10.1095Y-4.0993
X10.1937Y-2.7517
X10.3239Y-3.4903
X10.4542Y-4.2289
X10.49Y-1.9379
X10.6202Y-2.6765
X10.7504Y-3.4151
X10.8672Y-2.2522
X10.8807Y-4.1537
X10.9974Y-2.9908
X11.1277Y-3.7294
X11.2937Y-2.177
X11.4239Y-2.9156
X11.5542Y-3.6542
T2
X2.2474Y-3.7703
X2.5072Y-2.2899
X5.1572Y-4.4799
X5.4272Y-2.9999
X7.7072Y-2.9999
X7.9672Y-4.4599
X10.6272Y-2.29
X10.8852Y-3.7703
T3
X1.576Y-3.8047
X1.5931Y-3.8437
X1.7062Y-3.0661
X1.7233Y-3.1051
X1.7555Y-3.9203
X1.8364Y-2.3275
X1.8535Y-2.3665
X1.8573Y-3.9323
X1.8857Y-3.1817
X1.9875Y-3.1937
X2.0159Y-2.4431
X2.1178Y-2.4551
X2.2494Y-4.3043
X2.2666Y-4.3432
X2.3797Y-3.5656
X2.3968Y-3.6046
X2.4289Y-4.4199
X2.5099Y-2.827
X2.527Y-2.866
X2.5308Y-4.4318
X2.5592Y-3.6813
X2.6402Y-2.0884
X2.6573Y-2.1274
X2.661Y-3.6932
X2.6894Y-2.9426
X2.7913Y-2.9546
X2.8197Y-2.204
X2.9215Y-2.216
X3.0206Y-4.2498
X3.0377Y-4.2888
X3.1508Y-3.5112
X3.168Y-3.5502
X3.2001Y-4.3654
X3.2811Y-2.7726
X3.2982Y-2.8116
X3.3019Y-4.3774
X3.3304Y-3.6268
X3.4113Y-2.034
X3.4284Y-2.073
X3.4322Y-3.6388
X3.4606Y-2.8882
X3.5624Y-2.9002
X3.5908Y-2.1496
X3.6927Y-2.1616
X3.8243Y-4.0108
X3.8414Y-4.0498
X3.9546Y-3.2722
X3.9717Y-3.3112
X4.0038Y-4.1264
X4.0848Y-2.5336
X4.1019Y-2.5726
X4.1057Y-4.1383
X4.1341Y-3.3878
X4.215Y-1.795
X4.2322Y-1.834
X4.2359Y-3.3997
X4.2643Y-2.6492
X4.3661Y-2.6611
X4.3945Y-1.9106
X4.4964Y-1.9225
X4.4978Y-4.5103
X4.5149Y-4.5493
X4.6281Y-3.7717
X4.6452Y-3.8107
X4.6773Y-4.6259
X4.7583Y-3.0331
X4.7754Y-3.0721
X4.7792Y-4.6379
X4.8076Y-3.8873
X4.8885Y-2.2945
X4.9056Y-2.3335
X4.9094Y-3.8993
X4.9378Y-3.1487
X5.0396Y-3.1607
X5.068Y-2.4101
X5.1699Y-2.4221
X5.1722Y-5.0083
X5.1893Y-5.0473
X5.3015Y-4.2712
X5.3187Y-4.3102
X5.3517Y-5.1239
X5.4318Y-3.5326
X5.4489Y-3.5716
X5.4535Y-5.1359
X5.481Y-4.3868
X5.562Y-2.794
X5.5791Y-2.833
X5.5829Y-4.3988
X5.6113Y-3.6482
X5.7131Y-3.6602
X5.7415Y-2.9096
X5.8434Y-2.9216
X5.9108Y-5.1386
X5.9279Y-5.1776
X6.0903Y-5.2542
X6.1921Y-5.2661
X6.8404Y-5.2087
X6.8698Y-5.2395
X7.0486Y-5.256
X7.1484Y-5.2324
X7.187Y-2.8626
X7.2164Y-2.8934
X7.3172Y-3.6012
X7.3466Y-3.632
X7.3952Y-2.9098
X7.4474Y-4.3398
X7.4769Y-4.3706
X7.495Y-2.8863
X7.5254Y-3.6485
X7.579Y-5.0785
X7.6084Y-5.1093
X7.6252Y-3.6249
X7.6557Y-4.3871
X7.7554Y-4.3635
X7.7872Y-5.1257
X7.8605Y-2.3631
X7.887Y-5.1021
X7.8899Y-2.3939
X7.9907Y-3.1017
X8.0201Y-3.1325
X8.0687Y-2.4103
X8.1209Y-3.8403
X8.1503Y-3.8711
X8.1685Y-2.3867
X8.1989Y-3.1489
X8.2512Y-4.5789
X8.2806Y-4.6097
X8.2987Y-3.1253
X8.3291Y-3.8875
X8.4289Y-3.8639
X8.4594Y-4.6261
X8.5339Y-1.8635
X8.5592Y-4.6025
X8.5634Y-1.8943
X8.6642Y-2.6021
X8.6936Y-2.6329
X8.7422Y-1.9108
X8.7944Y-3.3407
X8.8238Y-3.3715
X8.8419Y-1.8872
X8.8724Y-2.6494
X8.9247Y-4.0794
X8.9541Y-4.1101
X8.9722Y-2.6258
X9.0026Y-3.388
X9.1024Y-3.3644
X9.1329Y-4.1266
X9.2327Y-4.103
X9.3377Y-2.1026
X9.3671Y-2.1334
X9.4679Y-2.8412
X9.4973Y-2.872
X9.5459Y-2.1498
X9.5981Y-3.5798
X9.6276Y-3.6106
X9.6457Y-2.1262
X9.6761Y-2.8884
X9.7284Y-4.3184
X9.7578Y-4.3492
X9.7759Y-2.8649
X9.8064Y-3.627
X9.9061Y-3.6035
X9.9366Y-4.3657
X10.0364Y-4.3421
X10.1088Y-2.157
X10.1382Y-2.1878
X10.2391Y-2.8956
X10.2685Y-2.9264
X10.317Y-2.2043
X10.3693Y-3.6342
X10.3987Y-3.665
X10.4168Y-2.1807
X10.4473Y-2.9429
X10.4995Y-4.3728
X10.529Y-4.4036
X10.5471Y-2.9193
X10.5775Y-3.6815
X10.6773Y-3.6579
X10.7078Y-4.4201
X10.8075Y-4.3965
X10.9126Y-2.3961
X10.942Y-2.4269
X11.0428Y-3.1347
X11.0722Y-3.1655
X11.1208Y-2.4433
X11.173Y-3.8733
X11.2024Y-3.9041
X11.2206Y-2.4197
X11.251Y-3.1819
X11.3508Y-3.1583
X11.3812Y-3.9205
X11.481Y-3.8969
T4
X1.7958Y-3.6916
X1.926Y-2.953
X2.0563Y-2.2144
X2.4693Y-4.1911
X2.5995Y-3.4525
X2.7298Y-2.7139
X2.86Y-1.9753
X3.2404Y-4.1367
X3.3707Y-3.3981
X3.5009Y-2.6595
X3.6312Y-1.9209
X4.0442Y-3.8976
X4.1744Y-3.159
X4.3046Y-2.4204
X4.4349Y-1.6818
X4.7177Y-4.3972
X4.8479Y-3.6586
X4.9781Y-2.9199
X5.1084Y-2.1813
X5.392Y-4.8952
X5.5214Y-4.1581
X5.6516Y-3.4195
X5.7819Y-2.6809
X6.1306Y-5.0254
X7.0082Y-5.0272
X7.3548Y-2.6811
X7.4851Y-3.4197
X7.6153Y-4.1583
X7.7468Y-4.897
X8.0283Y-2.1816
X8.1586Y-2.9202
X8.2888Y-3.6588
X8.419Y-4.3974
X8.7018Y-1.682
X8.8321Y-2.4206
X8.9623Y-3.1592
X9.0925Y-3.8978
X9.5055Y-1.9211
X9.6358Y-2.6597
X9.766Y-3.3983
X9.8963Y-4.1369
X10.2767Y-1.9755
X10.407Y-2.7141
X10.5372Y-3.4527
X10.6674Y-4.1913
X11.0804Y-2.2146
X11.2107Y-2.9532
X11.3409Y-3.6918
M30
