%TF.GenerationSoftware,KiCad,Pcbnew,8.0.7*%
%TF.CreationDate,2025-02-04T22:32:58+01:00*%
%TF.ProjectId,011_rev2,3031315f-7265-4763-922e-6b696361645f,rev?*%
%TF.SameCoordinates,Original*%
%TF.FileFunction,Profile,NP*%
%FSLAX46Y46*%
G04 Gerber Fmt 4.6, Leading zero omitted, Abs format (unit mm)*
G04 Created by KiCad (PCBNEW 8.0.7) date 2025-02-04 22:32:58*
%MOMM*%
%LPD*%
G01*
G04 APERTURE LIST*
%TA.AperFunction,Profile*%
%ADD10C,0.100000*%
%TD*%
%TA.AperFunction,Profile*%
%ADD11C,0.200000*%
%TD*%
%TA.AperFunction,Profile*%
%ADD12C,0.050000*%
%TD*%
G04 APERTURE END LIST*
D10*
X71111960Y-113779490D02*
G75*
G02*
X72270347Y-112968696I984740J-174010D01*
G01*
X231390210Y-40887150D02*
G75*
G02*
X230231768Y-40075945I-173810J984550D01*
G01*
X268926760Y-40118590D02*
X270233580Y-47529940D01*
X175863510Y-60349080D02*
G75*
G02*
X175689860Y-60364273I-173710J985480D01*
G01*
X140130000Y-57230000D02*
G75*
G02*
X139318836Y-56071594I173500J984700D01*
G01*
X298917670Y-100503790D02*
G75*
G02*
X298106488Y-101662292I-984770J-173710D01*
G01*
X157993020Y-60364270D02*
X166841440Y-60364280D01*
X280504330Y-105780760D02*
G75*
G02*
X281315547Y-104622429I984770J173560D01*
G01*
X207595380Y-131114800D02*
G75*
G02*
X206784210Y-132273178I-984780J-173600D01*
G01*
X243462900Y-115118150D02*
X242156050Y-107707050D01*
X84344980Y-38737580D02*
G75*
G02*
X85503427Y-37926546I984820J-173820D01*
G01*
X163522170Y-138715450D02*
X166841440Y-138715450D01*
X271392030Y-48341090D02*
G75*
G02*
X270233542Y-47529944I-173830J984590D01*
G01*
X210974550Y-34815100D02*
X227766950Y-31854540D01*
X91526830Y-107707050D02*
G75*
G02*
X92685347Y-106895947I984770J-173650D01*
G01*
X223395480Y-111016280D02*
X224701940Y-118426490D01*
X35576410Y-101662240D02*
G75*
G02*
X34765166Y-100503776I173590J984840D01*
G01*
X175863510Y-60349080D02*
X193552890Y-57229990D01*
X84344980Y-38737580D02*
X83865000Y-41458160D01*
X83865000Y-41458160D02*
G75*
G02*
X82706497Y-42269257I-984700J173560D01*
G01*
X122212730Y-43384220D02*
X123519520Y-35973570D01*
X62290860Y-48341090D02*
X45500030Y-45380510D01*
X44341580Y-46191670D02*
X34765210Y-100503790D01*
X126898670Y-132273250D02*
X163348530Y-138700260D01*
X280504330Y-105780760D02*
X281810720Y-113192470D01*
X231390210Y-40887150D02*
X248179460Y-37926510D01*
X109792130Y-119584930D02*
G75*
G02*
X108980890Y-118426485I173870J985030D01*
G01*
D11*
X138949411Y-76197971D02*
G75*
G02*
X136753889Y-76197971I-1097761J0D01*
G01*
X136753889Y-76197971D02*
G75*
G02*
X138949411Y-76197971I1097761J0D01*
G01*
D10*
X82706510Y-42269210D02*
X65914630Y-39307430D01*
X210163370Y-35973570D02*
G75*
G02*
X210974557Y-34815100I984930J173570D01*
G01*
X244621350Y-115929310D02*
G75*
G02*
X243462857Y-115118165I-173750J984710D01*
G01*
X103451150Y-40075940D02*
G75*
G02*
X102292666Y-40887198I-984750J173440D01*
G01*
X139813790Y-47503140D02*
G75*
G02*
X140624919Y-48661524I-173490J-984660D01*
G01*
X44341580Y-46191670D02*
G75*
G02*
X45500027Y-45380527I984920J-173830D01*
G01*
X267768250Y-39307440D02*
G75*
G02*
X268926715Y-40118596I173550J-984960D01*
G01*
X52683320Y-114350860D02*
X69472860Y-117311540D01*
X263051610Y-116500680D02*
X262570930Y-113779500D01*
X109476310Y-109857850D02*
G75*
G02*
X110287323Y-111016265I-173610J-984650D01*
G01*
X261412530Y-112968640D02*
G75*
G02*
X262570930Y-113779495I173470J-985060D01*
G01*
X298106480Y-101662240D02*
X281315540Y-104622370D01*
X122708340Y-34815100D02*
X105915940Y-31854530D01*
X228925390Y-32665730D02*
X230231730Y-40075950D01*
X139813790Y-47503140D02*
X123023890Y-44542690D01*
X52683320Y-114350860D02*
G75*
G02*
X51872103Y-113192465I173380J984660D01*
G01*
X193057930Y-48661530D02*
G75*
G02*
X193869101Y-47503125I984770J173630D01*
G01*
D11*
X196852439Y-76197972D02*
G75*
G02*
X194674863Y-76197972I-1088788J0D01*
G01*
X194674863Y-76197972D02*
G75*
G02*
X196852439Y-76197972I1088788J0D01*
G01*
D10*
X92685350Y-106895910D02*
X109476310Y-109857850D01*
X240997530Y-106895910D02*
G75*
G02*
X242156075Y-107707046I173670J-984890D01*
G01*
X157993020Y-60364270D02*
G75*
G02*
X157819379Y-60349083I380J1004570D01*
G01*
X70631280Y-116500690D02*
G75*
G02*
X69472856Y-117311588I-984680J173790D01*
G01*
X70631280Y-116500690D02*
X71111950Y-113779490D01*
X250976380Y-42269210D02*
G75*
G02*
X249817914Y-41458146I-173880J984510D01*
G01*
X109792130Y-119584930D02*
X126583050Y-122545290D01*
X206784220Y-132273250D02*
X170334360Y-138700250D01*
X281810720Y-113192470D02*
G75*
G02*
X280999578Y-114350912I-984820J-173630D01*
G01*
D11*
X277674414Y-95755872D02*
G75*
G02*
X275396886Y-95755872I-1138764J0D01*
G01*
X275396886Y-95755872D02*
G75*
G02*
X277674414Y-95755872I1138764J0D01*
G01*
X271069968Y-58163972D02*
G75*
G02*
X268793332Y-58163972I-1138318J0D01*
G01*
X268793332Y-58163972D02*
G75*
G02*
X271069968Y-58163972I1138318J0D01*
G01*
D10*
X224701940Y-118426490D02*
G75*
G02*
X223890766Y-119584965I-984740J-173710D01*
G01*
X110287400Y-111016280D02*
X108980950Y-118426490D01*
X240997530Y-106895910D02*
X224206580Y-109857860D01*
X227766950Y-31854540D02*
G75*
G02*
X228925387Y-32665735I173450J-985060D01*
G01*
X127394230Y-123703740D02*
X126087510Y-131114800D01*
D12*
X64798650Y-58163971D02*
G75*
G02*
X62568650Y-58163971I-1115000J0D01*
G01*
X62568650Y-58163971D02*
G75*
G02*
X64798650Y-58163971I1115000J0D01*
G01*
D10*
X288182850Y-45380510D02*
G75*
G02*
X289341295Y-46191676I173650J-984790D01*
G01*
X264210030Y-117311540D02*
G75*
G02*
X263051634Y-116500684I-173830J984540D01*
G01*
X157819380Y-60349090D02*
X140130000Y-57230000D01*
X90219990Y-115118160D02*
X91526830Y-107707050D01*
X194364060Y-56071600D02*
G75*
G02*
X193552882Y-57229928I-984860J-173500D01*
G01*
X170334360Y-138700250D02*
G75*
G02*
X170160720Y-138715456I-173960J987450D01*
G01*
X63449310Y-47529930D02*
G75*
G02*
X62290848Y-48341141I-984910J173730D01*
G01*
X194364060Y-56071600D02*
X193057930Y-48661530D01*
X163522170Y-138715450D02*
G75*
G02*
X163348530Y-138700261I-170J998150D01*
G01*
X126898670Y-132273250D02*
G75*
G02*
X126087414Y-131114775I173730J984950D01*
G01*
X175689860Y-60364280D02*
X166841440Y-60364280D01*
X223890760Y-119584930D02*
X207099840Y-122545290D01*
X250976380Y-42269210D02*
X267768250Y-39307440D01*
D12*
X58209220Y-95755972D02*
G75*
G02*
X55950082Y-95755972I-1129569J0D01*
G01*
X55950082Y-95755972D02*
G75*
G02*
X58209220Y-95755972I1129569J0D01*
G01*
D11*
X132145639Y-113789973D02*
G75*
G02*
X129841661Y-113789973I-1151989J0D01*
G01*
X129841661Y-113789973D02*
G75*
G02*
X132145639Y-113789973I1151989J0D01*
G01*
D10*
X35576410Y-101662240D02*
X52367350Y-104622370D01*
X90219990Y-115118160D02*
G75*
G02*
X89061526Y-115929370I-984790J173560D01*
G01*
X72270350Y-112968640D02*
X89061540Y-115929310D01*
X271392030Y-48341090D02*
X288182850Y-45380510D01*
X211470160Y-43384230D02*
X210163370Y-35973570D01*
X123023890Y-44542690D02*
G75*
G02*
X122212676Y-43384216I173410J984690D01*
G01*
D11*
X203465606Y-113281972D02*
G75*
G02*
X201269694Y-113281972I-1097956J0D01*
G01*
X201269694Y-113281972D02*
G75*
G02*
X203465606Y-113281972I1097956J0D01*
G01*
D10*
X249337910Y-38737580D02*
X249817890Y-41458150D01*
X289341300Y-46191680D02*
X298917670Y-100503790D01*
X170160720Y-138715450D02*
X166841440Y-138715450D01*
X206288660Y-123703740D02*
G75*
G02*
X207099828Y-122545266I984840J173640D01*
G01*
X126583050Y-122545290D02*
G75*
G02*
X127394167Y-123703726I-173850J-984910D01*
G01*
X64756130Y-40118590D02*
G75*
G02*
X65914637Y-39307417I984870J-173710D01*
G01*
X64756130Y-40118590D02*
X63449310Y-47529930D01*
X206288650Y-123703740D02*
X207595380Y-131114800D01*
X280999570Y-114350860D02*
X264210030Y-117311540D01*
X104757500Y-32665740D02*
G75*
G02*
X105915926Y-31854559I984900J-173760D01*
G01*
X248179460Y-37926510D02*
G75*
G02*
X249337877Y-38737585I173640J-984790D01*
G01*
X193869100Y-47503140D02*
X210658990Y-44542690D01*
X211470160Y-43384230D02*
G75*
G02*
X210658988Y-44542674I-984760J-173670D01*
G01*
X139318830Y-56071600D02*
X140624960Y-48661530D01*
X261412530Y-112968640D02*
X244621350Y-115929310D01*
X122708340Y-34815100D02*
G75*
G02*
X123519462Y-35973555I-173540J-984700D01*
G01*
X53178550Y-105780770D02*
X51872160Y-113192470D01*
X102292680Y-40887140D02*
X85503430Y-37926510D01*
X104757500Y-32665740D02*
X103451150Y-40075940D01*
X223395480Y-111016280D02*
G75*
G02*
X224206576Y-109857823I984920J173580D01*
G01*
X52367350Y-104622370D02*
G75*
G02*
X53178500Y-105780754I-173850J-984930D01*
G01*
%TO.C,L34*%
X105610610Y-73889713D02*
X105089665Y-76844137D01*
X107453204Y-77260892D02*
X106074473Y-77017785D01*
X107974148Y-74306469D02*
X106595418Y-74063362D01*
X108438012Y-77434540D02*
X108958956Y-74480117D01*
X105610610Y-73889713D02*
G75*
G02*
X106595417Y-74063362I492404J-86823D01*
G01*
X106074473Y-77017785D02*
G75*
G02*
X105089665Y-76844137I-492404J86824D01*
G01*
X107974148Y-74306469D02*
G75*
G02*
X108958956Y-74480117I492404J-86824D01*
G01*
X108438012Y-77434540D02*
G75*
G02*
X107453204Y-77260892I-492404J86824D01*
G01*
%TO.C,L28*%
X102210610Y-92489713D02*
X101689665Y-95444137D01*
X104053204Y-95860892D02*
X102674473Y-95617785D01*
X104574148Y-92906469D02*
X103195418Y-92663362D01*
X105038012Y-96034540D02*
X105558956Y-93080117D01*
X102210610Y-92489713D02*
G75*
G02*
X103195417Y-92663362I492404J-86823D01*
G01*
X102674473Y-95617785D02*
G75*
G02*
X101689665Y-95444137I-492404J86824D01*
G01*
X104574148Y-92906469D02*
G75*
G02*
X105558956Y-93080117I492404J-86824D01*
G01*
X105038012Y-96034540D02*
G75*
G02*
X104053204Y-95860892I-492404J86824D01*
G01*
%TO.C,L14*%
X207841044Y-87080117D02*
X208361988Y-90034540D01*
X210204582Y-86663362D02*
X208825852Y-86906469D01*
X210725527Y-89617785D02*
X209346796Y-89860892D01*
X211710335Y-89444137D02*
X211189390Y-86489713D01*
X207841044Y-87080117D02*
G75*
G02*
X208825852Y-86906469I492404J86824D01*
G01*
X209346796Y-89860892D02*
G75*
G02*
X208361988Y-90034540I-492404J-86824D01*
G01*
X210204582Y-86663362D02*
G75*
G02*
X211189391Y-86489713I492404J86826D01*
G01*
X211710335Y-89444137D02*
G75*
G02*
X210725527Y-89617785I-492404J-86824D01*
G01*
%TO.C,L25*%
X155210610Y-121289713D02*
X154689665Y-124244137D01*
X157053204Y-124660892D02*
X155674473Y-124417785D01*
X157574148Y-121706469D02*
X156195418Y-121463362D01*
X158038012Y-124834540D02*
X158558956Y-121880117D01*
X155210610Y-121289713D02*
G75*
G02*
X156195417Y-121463362I492404J-86823D01*
G01*
X155674473Y-124417785D02*
G75*
G02*
X154689665Y-124244137I-492404J86824D01*
G01*
X157574148Y-121706469D02*
G75*
G02*
X158558956Y-121880117I492404J-86824D01*
G01*
X158038012Y-124834540D02*
G75*
G02*
X157053204Y-124660892I-492404J86824D01*
G01*
%TO.C,L37*%
X143110610Y-80489713D02*
X142589665Y-83444137D01*
X144953204Y-83860892D02*
X143574473Y-83617785D01*
X145474148Y-80906469D02*
X144095418Y-80663362D01*
X145938012Y-84034540D02*
X146458956Y-81080117D01*
X143110610Y-80489713D02*
G75*
G02*
X144095417Y-80663362I492404J-86823D01*
G01*
X143574473Y-83617785D02*
G75*
G02*
X142589665Y-83444137I-492404J86824D01*
G01*
X145474148Y-80906469D02*
G75*
G02*
X146458956Y-81080117I492404J-86824D01*
G01*
X145938012Y-84034540D02*
G75*
G02*
X144953204Y-83860892I-492404J86824D01*
G01*
%TO.C,L21*%
X228241044Y-93280117D02*
X228761988Y-96234540D01*
X230604582Y-92863362D02*
X229225852Y-93106469D01*
X231125527Y-95817785D02*
X229746796Y-96060892D01*
X232110335Y-95644137D02*
X231589390Y-92689713D01*
X228241044Y-93280117D02*
G75*
G02*
X229225852Y-93106469I492404J86824D01*
G01*
X229746796Y-96060892D02*
G75*
G02*
X228761988Y-96234540I-492404J-86824D01*
G01*
X230604582Y-92863362D02*
G75*
G02*
X231589391Y-92689713I492404J86826D01*
G01*
X232110335Y-95644137D02*
G75*
G02*
X231125527Y-95817785I-492404J-86824D01*
G01*
%TO.C,L38*%
X126010610Y-67889713D02*
X125489665Y-70844137D01*
X127853204Y-71260892D02*
X126474473Y-71017785D01*
X128374148Y-68306469D02*
X126995418Y-68063362D01*
X128838012Y-71434540D02*
X129358956Y-68480117D01*
X126010610Y-67889713D02*
G75*
G02*
X126995417Y-68063362I492404J-86823D01*
G01*
X126474473Y-71017785D02*
G75*
G02*
X125489665Y-70844137I-492404J86824D01*
G01*
X128374148Y-68306469D02*
G75*
G02*
X129358956Y-68480117I492404J-86824D01*
G01*
X128838012Y-71434540D02*
G75*
G02*
X127853204Y-71260892I-492404J86824D01*
G01*
%TO.C,L10*%
X221641044Y-55680117D02*
X222161988Y-58634540D01*
X224004582Y-55263362D02*
X222625852Y-55506469D01*
X224525527Y-58217785D02*
X223146796Y-58460892D01*
X225510335Y-58044137D02*
X224989390Y-55089713D01*
X221641044Y-55680117D02*
G75*
G02*
X222625852Y-55506469I492404J86824D01*
G01*
X223146796Y-58460892D02*
G75*
G02*
X222161988Y-58634540I-492404J-86824D01*
G01*
X224004582Y-55263362D02*
G75*
G02*
X224989391Y-55089713I492404J86826D01*
G01*
X225510335Y-58044137D02*
G75*
G02*
X224525527Y-58217785I-492404J-86824D01*
G01*
%TO.C,L26*%
X136510610Y-117889713D02*
X135989665Y-120844137D01*
X138353204Y-121260892D02*
X136974473Y-121017785D01*
X138874148Y-118306469D02*
X137495418Y-118063362D01*
X139338012Y-121434540D02*
X139858956Y-118480117D01*
X136510610Y-117889713D02*
G75*
G02*
X137495417Y-118063362I492404J-86823D01*
G01*
X136974473Y-121017785D02*
G75*
G02*
X135989665Y-120844137I-492404J86824D01*
G01*
X138874148Y-118306469D02*
G75*
G02*
X139858956Y-118480117I492404J-86824D01*
G01*
X139338012Y-121434540D02*
G75*
G02*
X138353204Y-121260892I-492404J86824D01*
G01*
%TO.C,L12*%
X187441044Y-81080117D02*
X187961988Y-84034540D01*
X189804582Y-80663362D02*
X188425852Y-80906469D01*
X190325527Y-83617785D02*
X188946796Y-83860892D01*
X191310335Y-83444137D02*
X190789390Y-80489713D01*
X187441044Y-81080117D02*
G75*
G02*
X188425852Y-80906469I492404J86824D01*
G01*
X188946796Y-83860892D02*
G75*
G02*
X187961988Y-84034540I-492404J-86824D01*
G01*
X189804582Y-80663362D02*
G75*
G02*
X190789391Y-80489713I492404J86826D01*
G01*
X191310335Y-83444137D02*
G75*
G02*
X190325527Y-83617785I-492404J-86824D01*
G01*
%TO.C,L43*%
X51710610Y-49889713D02*
X51189665Y-52844137D01*
X53553204Y-53260892D02*
X52174473Y-53017785D01*
X54074148Y-50306469D02*
X52695418Y-50063362D01*
X54538012Y-53434540D02*
X55058956Y-50480117D01*
X51710610Y-49889713D02*
G75*
G02*
X52695417Y-50063362I492404J-86823D01*
G01*
X52174473Y-53017785D02*
G75*
G02*
X51189665Y-52844137I-492404J86824D01*
G01*
X54074148Y-50306469D02*
G75*
G02*
X55058956Y-50480117I492404J-86824D01*
G01*
X54538012Y-53434540D02*
G75*
G02*
X53553204Y-53260892I-492404J86824D01*
G01*
%TO.C,L19*%
X268241044Y-100480117D02*
X268761988Y-103434540D01*
X270604582Y-100063362D02*
X269225852Y-100306469D01*
X271125527Y-103017785D02*
X269746796Y-103260892D01*
X272110335Y-102844137D02*
X271589390Y-99889713D01*
X268241044Y-100480117D02*
G75*
G02*
X269225852Y-100306469I492404J86824D01*
G01*
X269746796Y-103260892D02*
G75*
G02*
X268761988Y-103434540I-492404J-86824D01*
G01*
X270604582Y-100063362D02*
G75*
G02*
X271589391Y-99889713I492404J86826D01*
G01*
X272110335Y-102844137D02*
G75*
G02*
X271125527Y-103017785I-492404J-86824D01*
G01*
%TO.C,L48*%
X146378610Y-61544460D02*
X145857665Y-64498884D01*
X148221204Y-64915639D02*
X146842473Y-64672532D01*
X148742148Y-61961216D02*
X147363418Y-61718109D01*
X149206012Y-65089287D02*
X149726956Y-62134864D01*
X146378610Y-61544460D02*
G75*
G02*
X147363417Y-61718109I492404J-86823D01*
G01*
X146842473Y-64672532D02*
G75*
G02*
X145857665Y-64498884I-492404J86824D01*
G01*
X148742148Y-61961216D02*
G75*
G02*
X149726956Y-62134864I492404J-86824D01*
G01*
X149206012Y-65089287D02*
G75*
G02*
X148221204Y-64915639I-492404J86824D01*
G01*
%TO.C,L44*%
X72210610Y-43789713D02*
X71689665Y-46744137D01*
X74053204Y-47160892D02*
X72674473Y-46917785D01*
X74574148Y-44206469D02*
X73195418Y-43963362D01*
X75038012Y-47334540D02*
X75558956Y-44380117D01*
X72210610Y-43789713D02*
G75*
G02*
X73195417Y-43963362I492404J-86823D01*
G01*
X72674473Y-46917785D02*
G75*
G02*
X71689665Y-46744137I-492404J86824D01*
G01*
X74574148Y-44206469D02*
G75*
G02*
X75558956Y-44380117I492404J-86824D01*
G01*
X75038012Y-47334540D02*
G75*
G02*
X74053204Y-47160892I-492404J86824D01*
G01*
%TO.C,L2*%
X201241044Y-49480117D02*
X201761988Y-52434540D01*
X203604582Y-49063362D02*
X202225852Y-49306469D01*
X204125527Y-52017785D02*
X202746796Y-52260892D01*
X205110335Y-51844137D02*
X204589390Y-48889713D01*
X201241044Y-49480117D02*
G75*
G02*
X202225852Y-49306469I492404J86824D01*
G01*
X202746796Y-52260892D02*
G75*
G02*
X201761988Y-52434540I-492404J-86824D01*
G01*
X203604582Y-49063362D02*
G75*
G02*
X204589391Y-48889713I492404J86826D01*
G01*
X205110335Y-51844137D02*
G75*
G02*
X204125527Y-52017785I-492404J-86824D01*
G01*
%TO.C,L27*%
X119310610Y-105289713D02*
X118789665Y-108244137D01*
X121153204Y-108660892D02*
X119774473Y-108417785D01*
X121674148Y-105706469D02*
X120295418Y-105463362D01*
X122138012Y-108834540D02*
X122658956Y-105880117D01*
X119310610Y-105289713D02*
G75*
G02*
X120295417Y-105463362I492404J-86823D01*
G01*
X119774473Y-108417785D02*
G75*
G02*
X118789665Y-108244137I-492404J86824D01*
G01*
X121674148Y-105706469D02*
G75*
G02*
X122658956Y-105880117I492404J-86824D01*
G01*
X122138012Y-108834540D02*
G75*
G02*
X121153204Y-108660892I-492404J86824D01*
G01*
%TO.C,L32*%
X65610610Y-80989713D02*
X65089665Y-83944137D01*
X67453204Y-84360892D02*
X66074473Y-84117785D01*
X67974148Y-81406469D02*
X66595418Y-81163362D01*
X68438012Y-84534540D02*
X68958956Y-81580117D01*
X65610610Y-80989713D02*
G75*
G02*
X66595417Y-81163362I492404J-86823D01*
G01*
X66074473Y-84117785D02*
G75*
G02*
X65089665Y-83944137I-492404J86824D01*
G01*
X67974148Y-81406469D02*
G75*
G02*
X68958956Y-81580117I492404J-86824D01*
G01*
X68438012Y-84534540D02*
G75*
G02*
X67453204Y-84360892I-492404J86824D01*
G01*
%TO.C,L1*%
X184109044Y-62280117D02*
X184629988Y-65234540D01*
X186472582Y-61863362D02*
X185093852Y-62106469D01*
X186993527Y-64817785D02*
X185614796Y-65060892D01*
X187978335Y-64644137D02*
X187457390Y-61689713D01*
X184109044Y-62280117D02*
G75*
G02*
X185093852Y-62106469I492404J86824D01*
G01*
X185614796Y-65060892D02*
G75*
G02*
X184629988Y-65234540I-492404J-86824D01*
G01*
X186472582Y-61863362D02*
G75*
G02*
X187457391Y-61689713I492404J86826D01*
G01*
X187978335Y-64644137D02*
G75*
G02*
X186993527Y-64817785I-492404J-86824D01*
G01*
%TO.C,L40*%
X88510610Y-61089713D02*
X87989665Y-64044137D01*
X90353204Y-64460892D02*
X88974473Y-64217785D01*
X90874148Y-61506469D02*
X89495418Y-61263362D01*
X91338012Y-64634540D02*
X91858956Y-61680117D01*
X88510610Y-61089713D02*
G75*
G02*
X89495417Y-61263362I492404J-86823D01*
G01*
X88974473Y-64217785D02*
G75*
G02*
X87989665Y-64044137I-492404J86824D01*
G01*
X90874148Y-61506469D02*
G75*
G02*
X91858956Y-61680117I492404J-86824D01*
G01*
X91338012Y-64634540D02*
G75*
G02*
X90353204Y-64460892I-492404J86824D01*
G01*
%TO.C,L23*%
X194041044Y-118480117D02*
X194561988Y-121434540D01*
X196404582Y-118063362D02*
X195025852Y-118306469D01*
X196925527Y-121017785D02*
X195546796Y-121260892D01*
X197910335Y-120844137D02*
X197389390Y-117889713D01*
X194041044Y-118480117D02*
G75*
G02*
X195025852Y-118306469I492404J86824D01*
G01*
X195546796Y-121260892D02*
G75*
G02*
X194561988Y-121434540I-492404J-86824D01*
G01*
X196404582Y-118063362D02*
G75*
G02*
X197389391Y-117889713I492404J86826D01*
G01*
X197910335Y-120844137D02*
G75*
G02*
X196925527Y-121017785I-492404J-86824D01*
G01*
%TO.C,L24*%
X175341044Y-121880117D02*
X175861988Y-124834540D01*
X177704582Y-121463362D02*
X176325852Y-121706469D01*
X178225527Y-124417785D02*
X176846796Y-124660892D01*
X179210335Y-124244137D02*
X178689390Y-121289713D01*
X175341044Y-121880117D02*
G75*
G02*
X176325852Y-121706469I492404J86824D01*
G01*
X176846796Y-124660892D02*
G75*
G02*
X175861988Y-124834540I-492404J-86824D01*
G01*
X177704582Y-121463362D02*
G75*
G02*
X178689391Y-121289713I492404J86826D01*
G01*
X179210335Y-124244137D02*
G75*
G02*
X178225527Y-124417785I-492404J-86824D01*
G01*
%TO.C,L41*%
X68810610Y-62489713D02*
X68289665Y-65444137D01*
X70653204Y-65860892D02*
X69274473Y-65617785D01*
X71174148Y-62906469D02*
X69795418Y-62663362D01*
X71638012Y-66034540D02*
X72158956Y-63080117D01*
X68810610Y-62489713D02*
G75*
G02*
X69795417Y-62663362I492404J-86823D01*
G01*
X69274473Y-65617785D02*
G75*
G02*
X68289665Y-65444137I-492404J86824D01*
G01*
X71174148Y-62906469D02*
G75*
G02*
X72158956Y-63080117I492404J-86824D01*
G01*
X71638012Y-66034540D02*
G75*
G02*
X70653204Y-65860892I-492404J86824D01*
G01*
%TO.C,L9*%
X242041044Y-61680117D02*
X242561988Y-64634540D01*
X244404582Y-61263362D02*
X243025852Y-61506469D01*
X244925527Y-64217785D02*
X243546796Y-64460892D01*
X245910335Y-64044137D02*
X245389390Y-61089713D01*
X242041044Y-61680117D02*
G75*
G02*
X243025852Y-61506469I492404J86824D01*
G01*
X243546796Y-64460892D02*
G75*
G02*
X242561988Y-64634540I-492404J-86824D01*
G01*
X244404582Y-61263362D02*
G75*
G02*
X245389391Y-61089713I492404J86826D01*
G01*
X245910335Y-64044137D02*
G75*
G02*
X244925527Y-64217785I-492404J-86824D01*
G01*
%TO.C,L36*%
X139761988Y-99265460D02*
X139241044Y-102219883D01*
X140225852Y-102393531D02*
X141604582Y-102636638D01*
X140746796Y-99439108D02*
X142125527Y-99682215D01*
X142589390Y-102810287D02*
X143110335Y-99855863D01*
X139761988Y-99265460D02*
G75*
G02*
X140746796Y-99439108I492404J-86824D01*
G01*
X140225852Y-102393531D02*
G75*
G02*
X139241044Y-102219883I-492404J86824D01*
G01*
X142125527Y-99682215D02*
G75*
G02*
X143110335Y-99855863I492404J-86824D01*
G01*
X142589390Y-102810287D02*
G75*
G02*
X141604583Y-102636638I-492404J86823D01*
G01*
%TO.C,L22*%
X211241044Y-105880117D02*
X211761988Y-108834540D01*
X213604582Y-105463362D02*
X212225852Y-105706469D01*
X214125527Y-108417785D02*
X212746796Y-108660892D01*
X215110335Y-108244137D02*
X214589390Y-105289713D01*
X211241044Y-105880117D02*
G75*
G02*
X212225852Y-105706469I492404J86824D01*
G01*
X212746796Y-108660892D02*
G75*
G02*
X211761988Y-108834540I-492404J-86824D01*
G01*
X213604582Y-105463362D02*
G75*
G02*
X214589391Y-105289713I492404J86826D01*
G01*
X215110335Y-108244137D02*
G75*
G02*
X214125527Y-108417785I-492404J-86824D01*
G01*
%TO.C,L33*%
X85110610Y-79689713D02*
X84589665Y-82644137D01*
X86953204Y-83060892D02*
X85574473Y-82817785D01*
X87474148Y-80106469D02*
X86095418Y-79863362D01*
X87938012Y-83234540D02*
X88458956Y-80280117D01*
X85110610Y-79689713D02*
G75*
G02*
X86095417Y-79863362I492404J-86823D01*
G01*
X85574473Y-82817785D02*
G75*
G02*
X84589665Y-82644137I-492404J86824D01*
G01*
X87474148Y-80106469D02*
G75*
G02*
X88458956Y-80280117I492404J-86824D01*
G01*
X87938012Y-83234540D02*
G75*
G02*
X86953204Y-83060892I-492404J86824D01*
G01*
%TO.C,L30*%
X62210610Y-100089713D02*
X61689665Y-103044137D01*
X64053204Y-103460892D02*
X62674473Y-103217785D01*
X64574148Y-100506469D02*
X63195418Y-100263362D01*
X65038012Y-103634540D02*
X65558956Y-100680117D01*
X62210610Y-100089713D02*
G75*
G02*
X63195417Y-100263362I492404J-86823D01*
G01*
X62674473Y-103217785D02*
G75*
G02*
X61689665Y-103044137I-492404J86824D01*
G01*
X64574148Y-100506469D02*
G75*
G02*
X65558956Y-100680117I492404J-86824D01*
G01*
X65038012Y-103634540D02*
G75*
G02*
X64053204Y-103460892I-492404J86824D01*
G01*
%TO.C,L4*%
X238841044Y-42880117D02*
X239361988Y-45834540D01*
X241204582Y-42463362D02*
X239825852Y-42706469D01*
X241725527Y-45417785D02*
X240346796Y-45660892D01*
X242710335Y-45244137D02*
X242189390Y-42289713D01*
X238841044Y-42880117D02*
G75*
G02*
X239825852Y-42706469I492404J86824D01*
G01*
X240346796Y-45660892D02*
G75*
G02*
X239361988Y-45834540I-492404J-86824D01*
G01*
X241204582Y-42463362D02*
G75*
G02*
X242189391Y-42289713I492404J86826D01*
G01*
X242710335Y-45244137D02*
G75*
G02*
X241725527Y-45417785I-492404J-86824D01*
G01*
%TO.C,L13*%
X190841044Y-99680117D02*
X191361988Y-102634540D01*
X193204582Y-99263362D02*
X191825852Y-99506469D01*
X193725527Y-102217785D02*
X192346796Y-102460892D01*
X194710335Y-102044137D02*
X194189390Y-99089713D01*
X190841044Y-99680117D02*
G75*
G02*
X191825852Y-99506469I492404J86824D01*
G01*
X192346796Y-102460892D02*
G75*
G02*
X191361988Y-102634540I-492404J-86824D01*
G01*
X193204582Y-99263362D02*
G75*
G02*
X194189391Y-99089713I492404J86826D01*
G01*
X194710335Y-102044137D02*
G75*
G02*
X193725527Y-102217785I-492404J-86824D01*
G01*
%TO.C,L47*%
X129310610Y-49089713D02*
X128789665Y-52044137D01*
X131153204Y-52460892D02*
X129774473Y-52217785D01*
X131674148Y-49506469D02*
X130295418Y-49263362D01*
X132138012Y-52634540D02*
X132658956Y-49680117D01*
X129310610Y-49089713D02*
G75*
G02*
X130295417Y-49263362I492404J-86823D01*
G01*
X129774473Y-52217785D02*
G75*
G02*
X128789665Y-52044137I-492404J86824D01*
G01*
X131674148Y-49506469D02*
G75*
G02*
X132658956Y-49680117I492404J-86824D01*
G01*
X132138012Y-52634540D02*
G75*
G02*
X131153204Y-52460892I-492404J86824D01*
G01*
%TO.C,L29*%
X81810610Y-98689713D02*
X81289665Y-101644137D01*
X83653204Y-102060892D02*
X82274473Y-101817785D01*
X84174148Y-99106469D02*
X82795418Y-98863362D01*
X84638012Y-102234540D02*
X85158956Y-99280117D01*
X81810610Y-98689713D02*
G75*
G02*
X82795417Y-98863362I492404J-86823D01*
G01*
X82274473Y-101817785D02*
G75*
G02*
X81289665Y-101644137I-492404J86824D01*
G01*
X84174148Y-99106469D02*
G75*
G02*
X85158956Y-99280117I492404J-86824D01*
G01*
X84638012Y-102234540D02*
G75*
G02*
X83653204Y-102060892I-492404J86824D01*
G01*
%TO.C,L31*%
X45110610Y-87344460D02*
X44589665Y-90298884D01*
X46953204Y-90715639D02*
X45574473Y-90472532D01*
X47474148Y-87761216D02*
X46095418Y-87518109D01*
X47938012Y-90889287D02*
X48458956Y-87934864D01*
X45110610Y-87344460D02*
G75*
G02*
X46095417Y-87518109I492404J-86823D01*
G01*
X45574473Y-90472532D02*
G75*
G02*
X44589665Y-90298884I-492404J86824D01*
G01*
X47474148Y-87761216D02*
G75*
G02*
X48458956Y-87934864I492404J-86824D01*
G01*
X47938012Y-90889287D02*
G75*
G02*
X46953204Y-90715639I-492404J86824D01*
G01*
%TO.C,L45*%
X91810610Y-42289713D02*
X91289665Y-45244137D01*
X93653204Y-45660892D02*
X92274473Y-45417785D01*
X94174148Y-42706469D02*
X92795418Y-42463362D01*
X94638012Y-45834540D02*
X95158956Y-42880117D01*
X91810610Y-42289713D02*
G75*
G02*
X92795417Y-42463362I492404J-86823D01*
G01*
X92274473Y-45417785D02*
G75*
G02*
X91289665Y-45244137I-492404J86824D01*
G01*
X94174148Y-42706469D02*
G75*
G02*
X95158956Y-42880117I492404J-86824D01*
G01*
X94638012Y-45834540D02*
G75*
G02*
X93653204Y-45660892I-492404J86824D01*
G01*
%TO.C,L17*%
X265041044Y-81880117D02*
X265561988Y-84834540D01*
X267404582Y-81463362D02*
X266025852Y-81706469D01*
X267925527Y-84417785D02*
X266546796Y-84660892D01*
X268910335Y-84244137D02*
X268389390Y-81289713D01*
X265041044Y-81880117D02*
G75*
G02*
X266025852Y-81706469I492404J86824D01*
G01*
X266546796Y-84660892D02*
G75*
G02*
X265561988Y-84834540I-492404J-86824D01*
G01*
X267404582Y-81463362D02*
G75*
G02*
X268389391Y-81289713I492404J86826D01*
G01*
X268910335Y-84244137D02*
G75*
G02*
X267925527Y-84417785I-492404J-86824D01*
G01*
%TO.C,L20*%
X248641044Y-99280117D02*
X249161988Y-102234540D01*
X251004582Y-98863362D02*
X249625852Y-99106469D01*
X251525527Y-101817785D02*
X250146796Y-102060892D01*
X252510335Y-101644137D02*
X251989390Y-98689713D01*
X248641044Y-99280117D02*
G75*
G02*
X249625852Y-99106469I492404J86824D01*
G01*
X250146796Y-102060892D02*
G75*
G02*
X249161988Y-102234540I-492404J-86824D01*
G01*
X251004582Y-98863362D02*
G75*
G02*
X251989391Y-98689713I492404J86826D01*
G01*
X252510335Y-101644137D02*
G75*
G02*
X251525527Y-101817785I-492404J-86824D01*
G01*
%TO.C,L5*%
X258341044Y-44280117D02*
X258861988Y-47234540D01*
X260704582Y-43863362D02*
X259325852Y-44106469D01*
X261225527Y-46817785D02*
X259846796Y-47060892D01*
X262210335Y-46644137D02*
X261689390Y-43689713D01*
X258341044Y-44280117D02*
G75*
G02*
X259325852Y-44106469I492404J86824D01*
G01*
X259846796Y-47060892D02*
G75*
G02*
X258861988Y-47234540I-492404J-86824D01*
G01*
X260704582Y-43863362D02*
G75*
G02*
X261689391Y-43689713I492404J86826D01*
G01*
X262210335Y-46644137D02*
G75*
G02*
X261225527Y-46817785I-492404J-86824D01*
G01*
%TO.C,L8*%
X261641044Y-63098917D02*
X262161988Y-66053340D01*
X264004582Y-62682162D02*
X262625852Y-62925269D01*
X264525527Y-65636585D02*
X263146796Y-65879692D01*
X265510335Y-65462937D02*
X264989390Y-62508513D01*
X261641044Y-63098917D02*
G75*
G02*
X262625852Y-62925269I492404J86824D01*
G01*
X263146796Y-65879692D02*
G75*
G02*
X262161988Y-66053340I-492404J-86824D01*
G01*
X264004582Y-62682162D02*
G75*
G02*
X264989391Y-62508513I492404J86826D01*
G01*
X265510335Y-65462937D02*
G75*
G02*
X264525527Y-65636585I-492404J-86824D01*
G01*
%TO.C,L46*%
X112210610Y-36289713D02*
X111689665Y-39244137D01*
X114053204Y-39660892D02*
X112674473Y-39417785D01*
X114574148Y-36706469D02*
X113195418Y-36463362D01*
X115038012Y-39834540D02*
X115558956Y-36880117D01*
X112210610Y-36289713D02*
G75*
G02*
X113195417Y-36463362I492404J-86823D01*
G01*
X112674473Y-39417785D02*
G75*
G02*
X111689665Y-39244137I-492404J86824D01*
G01*
X114574148Y-36706469D02*
G75*
G02*
X115558956Y-36880117I492404J-86824D01*
G01*
X115038012Y-39834540D02*
G75*
G02*
X114053204Y-39660892I-492404J86824D01*
G01*
%TO.C,L6*%
X278809044Y-50280117D02*
X279329988Y-53234540D01*
X281172582Y-49863362D02*
X279793852Y-50106469D01*
X281693527Y-52817785D02*
X280314796Y-53060892D01*
X282678335Y-52644137D02*
X282157390Y-49689713D01*
X278809044Y-50280117D02*
G75*
G02*
X279793852Y-50106469I492404J86824D01*
G01*
X280314796Y-53060892D02*
G75*
G02*
X279329988Y-53234540I-492404J-86824D01*
G01*
X281172582Y-49863362D02*
G75*
G02*
X282157391Y-49689713I492404J86826D01*
G01*
X282678335Y-52644137D02*
G75*
G02*
X281693527Y-52817785I-492404J-86824D01*
G01*
%TO.C,L42*%
X48410610Y-68689713D02*
X47889665Y-71644137D01*
X50253204Y-72060892D02*
X48874473Y-71817785D01*
X50774148Y-69106469D02*
X49395418Y-68863362D01*
X51238012Y-72234540D02*
X51758956Y-69280117D01*
X48410610Y-68689713D02*
G75*
G02*
X49395417Y-68863362I492404J-86823D01*
G01*
X48874473Y-71817785D02*
G75*
G02*
X47889665Y-71644137I-492404J86824D01*
G01*
X50774148Y-69106469D02*
G75*
G02*
X51758956Y-69280117I492404J-86824D01*
G01*
X51238012Y-72234540D02*
G75*
G02*
X50253204Y-72060892I-492404J86824D01*
G01*
%TO.C,L39*%
X108910610Y-54789713D02*
X108389665Y-57744137D01*
X110753204Y-58160892D02*
X109374473Y-57917785D01*
X111274148Y-55206469D02*
X109895418Y-54963362D01*
X111738012Y-58334540D02*
X112258956Y-55380117D01*
X108910610Y-54789713D02*
G75*
G02*
X109895417Y-54963362I492404J-86823D01*
G01*
X109374473Y-57917785D02*
G75*
G02*
X108389665Y-57744137I-492404J86824D01*
G01*
X111274148Y-55206469D02*
G75*
G02*
X112258956Y-55380117I492404J-86824D01*
G01*
X111738012Y-58334540D02*
G75*
G02*
X110753204Y-58160892I-492404J86824D01*
G01*
%TO.C,L18*%
X285441044Y-87880117D02*
X285961988Y-90834540D01*
X287804582Y-87463362D02*
X286425852Y-87706469D01*
X288325527Y-90417785D02*
X286946796Y-90660892D01*
X289310335Y-90244137D02*
X288789390Y-87289713D01*
X285441044Y-87880117D02*
G75*
G02*
X286425852Y-87706469I492404J86824D01*
G01*
X286946796Y-90660892D02*
G75*
G02*
X285961988Y-90834540I-492404J-86824D01*
G01*
X287804582Y-87463362D02*
G75*
G02*
X288789391Y-87289713I492404J86826D01*
G01*
X289310335Y-90244137D02*
G75*
G02*
X288325527Y-90417785I-492404J-86824D01*
G01*
%TO.C,L15*%
X224941044Y-74280117D02*
X225461988Y-77234540D01*
X227304582Y-73863362D02*
X225925852Y-74106469D01*
X227825527Y-76817785D02*
X226446796Y-77060892D01*
X228810335Y-76644137D02*
X228289390Y-73689713D01*
X224941044Y-74280117D02*
G75*
G02*
X225925852Y-74106469I492404J86824D01*
G01*
X226446796Y-77060892D02*
G75*
G02*
X225461988Y-77234540I-492404J-86824D01*
G01*
X227304582Y-73863362D02*
G75*
G02*
X228289391Y-73689713I492404J86826D01*
G01*
X228810335Y-76644137D02*
G75*
G02*
X227825527Y-76817785I-492404J-86824D01*
G01*
%TO.C,L35*%
X122610610Y-86489713D02*
X122089665Y-89444137D01*
X124453204Y-89860892D02*
X123074473Y-89617785D01*
X124974148Y-86906469D02*
X123595418Y-86663362D01*
X125438012Y-90034540D02*
X125958956Y-87080117D01*
X122610610Y-86489713D02*
G75*
G02*
X123595417Y-86663362I492404J-86823D01*
G01*
X123074473Y-89617785D02*
G75*
G02*
X122089665Y-89444137I-492404J86824D01*
G01*
X124974148Y-86906469D02*
G75*
G02*
X125958956Y-87080117I492404J-86824D01*
G01*
X125438012Y-90034540D02*
G75*
G02*
X124453204Y-89860892I-492404J86824D01*
G01*
%TO.C,L7*%
X282041044Y-69080117D02*
X282561988Y-72034540D01*
X284404582Y-68663362D02*
X283025852Y-68906469D01*
X284925527Y-71617785D02*
X283546796Y-71860892D01*
X285910335Y-71444137D02*
X285389390Y-68489713D01*
X282041044Y-69080117D02*
G75*
G02*
X283025852Y-68906469I492404J86824D01*
G01*
X283546796Y-71860892D02*
G75*
G02*
X282561988Y-72034540I-492404J-86824D01*
G01*
X284404582Y-68663362D02*
G75*
G02*
X285389391Y-68489713I492404J86826D01*
G01*
X285910335Y-71444137D02*
G75*
G02*
X284925527Y-71617785I-492404J-86824D01*
G01*
%TO.C,L3*%
X218441044Y-36880117D02*
X218961988Y-39834540D01*
X220804582Y-36463362D02*
X219425852Y-36706469D01*
X221325527Y-39417785D02*
X219946796Y-39660892D01*
X222310335Y-39244137D02*
X221789390Y-36289713D01*
X218441044Y-36880117D02*
G75*
G02*
X219425852Y-36706469I492404J86824D01*
G01*
X219946796Y-39660892D02*
G75*
G02*
X218961988Y-39834540I-492404J-86824D01*
G01*
X220804582Y-36463362D02*
G75*
G02*
X221789391Y-36289713I492404J86826D01*
G01*
X222310335Y-39244137D02*
G75*
G02*
X221325527Y-39417785I-492404J-86824D01*
G01*
%TO.C,L11*%
X204509044Y-68280117D02*
X205029988Y-71234540D01*
X206872582Y-67863362D02*
X205493852Y-68106469D01*
X207393527Y-70817785D02*
X206014796Y-71060892D01*
X208378335Y-70644137D02*
X207857390Y-67689713D01*
X204509044Y-68280117D02*
G75*
G02*
X205493852Y-68106469I492404J86824D01*
G01*
X206014796Y-71060892D02*
G75*
G02*
X205029988Y-71234540I-492404J-86824D01*
G01*
X206872582Y-67863362D02*
G75*
G02*
X207857391Y-67689713I492404J86826D01*
G01*
X208378335Y-70644137D02*
G75*
G02*
X207393527Y-70817785I-492404J-86824D01*
G01*
%TO.C,L16*%
X245341044Y-80180117D02*
X245861988Y-83134540D01*
X247704582Y-79763362D02*
X246325852Y-80006469D01*
X248225527Y-82717785D02*
X246846796Y-82960892D01*
X249210335Y-82544137D02*
X248689390Y-79589713D01*
X245341044Y-80180117D02*
G75*
G02*
X246325852Y-80006469I492404J86824D01*
G01*
X246846796Y-82960892D02*
G75*
G02*
X245861988Y-83134540I-492404J-86824D01*
G01*
X247704582Y-79763362D02*
G75*
G02*
X248689391Y-79589713I492404J86826D01*
G01*
X249210335Y-82544137D02*
G75*
G02*
X248225527Y-82717785I-492404J-86824D01*
G01*
%TD*%
M02*
