%TF.GenerationSoftware,KiCad,Pcbnew,8.0.7*%
%TF.CreationDate,2025-02-04T22:32:57+01:00*%
%TF.ProjectId,011_rev2,3031315f-7265-4763-922e-6b696361645f,rev?*%
%TF.SameCoordinates,Original*%
%TF.FileFunction,Soldermask,Top*%
%TF.FilePolarity,Negative*%
%FSLAX46Y46*%
G04 Gerber Fmt 4.6, Leading zero omitted, Abs format (unit mm)*
G04 Created by KiCad (PCBNEW 8.0.7) date 2025-02-04 22:32:57*
%MOMM*%
%LPD*%
G01*
G04 APERTURE LIST*
G04 Aperture macros list*
%AMRoundRect*
0 Rectangle with rounded corners*
0 $1 Rounding radius*
0 $2 $3 $4 $5 $6 $7 $8 $9 X,Y pos of 4 corners*
0 Add a 4 corners polygon primitive as box body*
4,1,4,$2,$3,$4,$5,$6,$7,$8,$9,$2,$3,0*
0 Add four circle primitives for the rounded corners*
1,1,$1+$1,$2,$3*
1,1,$1+$1,$4,$5*
1,1,$1+$1,$6,$7*
1,1,$1+$1,$8,$9*
0 Add four rect primitives between the rounded corners*
20,1,$1+$1,$2,$3,$4,$5,0*
20,1,$1+$1,$4,$5,$6,$7,0*
20,1,$1+$1,$6,$7,$8,$9,0*
20,1,$1+$1,$8,$9,$2,$3,0*%
G04 Aperture macros list end*
%ADD10C,1.600000*%
%ADD11RoundRect,0.400000X-1.100000X-0.400000X1.100000X-0.400000X1.100000X0.400000X-1.100000X0.400000X0*%
%ADD12C,1.701800*%
%ADD13C,3.000000*%
%ADD14C,5.000000*%
%ADD15C,2.200000*%
%ADD16C,0.600000*%
G04 APERTURE END LIST*
D10*
%TO.C,M1*%
X159000000Y-64487000D03*
D11*
X158000000Y-64487000D03*
D10*
X159000000Y-67027000D03*
D11*
X158000000Y-67027000D03*
D10*
X159000000Y-69567000D03*
D11*
X158000000Y-69567000D03*
D10*
X159000000Y-72107000D03*
D11*
X158000000Y-72107000D03*
D10*
X159000000Y-74647000D03*
D11*
X158000000Y-74647000D03*
D10*
X159000000Y-77187000D03*
D11*
X158000000Y-77187000D03*
D10*
X159000000Y-79727000D03*
D11*
X158000000Y-79727000D03*
D10*
X174235000Y-79727000D03*
D11*
X175235000Y-79727000D03*
D10*
X174235000Y-77187000D03*
D11*
X175235000Y-77187000D03*
D10*
X174235000Y-74647000D03*
D11*
X175235000Y-74647000D03*
D10*
X174235000Y-72107000D03*
D11*
X175235000Y-72107000D03*
D10*
X174235000Y-69567000D03*
D11*
X175235000Y-69567000D03*
D10*
X174235000Y-67027000D03*
D11*
X175235000Y-67027000D03*
D10*
X174235000Y-64487000D03*
D11*
X175235000Y-64487000D03*
%TD*%
D12*
%TO.C,RC6-2*%
X134826740Y-104660488D03*
D13*
X134659281Y-108489582D03*
X135093880Y-109480097D03*
D14*
X140243183Y-105615553D03*
D13*
X139218659Y-111425919D03*
X141805206Y-111729683D03*
D12*
X145659626Y-106570618D03*
%TD*%
%TO.C,RC0-4*%
X181396741Y-69054877D03*
D13*
X182549008Y-72710322D03*
X183296176Y-73492460D03*
D14*
X186813184Y-68099812D03*
D13*
X187837708Y-73910178D03*
X190372161Y-73310971D03*
D12*
X192229627Y-67144747D03*
%TD*%
%TO.C,RC6-5*%
X279334677Y-75965622D03*
D13*
X280486944Y-79621067D03*
X281234112Y-80403205D03*
D14*
X284751120Y-75010557D03*
D13*
X285775644Y-80820923D03*
X288310097Y-80221716D03*
D12*
X290167563Y-74055492D03*
%TD*%
%TO.C,RC1-0*%
X46812798Y-55289470D03*
D13*
X46645339Y-59118564D03*
X47079938Y-60109079D03*
D14*
X52229241Y-56244535D03*
D13*
X51204717Y-62054901D03*
X53791264Y-62358665D03*
D12*
X57645684Y-57199600D03*
%TD*%
%TO.C,RC1-6*%
X205119325Y-93887760D03*
D13*
X206271592Y-97543205D03*
X207018760Y-98325343D03*
D14*
X210535768Y-92932695D03*
D13*
X211560292Y-98743061D03*
X214094745Y-98143854D03*
D12*
X215952211Y-91977630D03*
%TD*%
%TO.C,RC1-3*%
X76890978Y-104116788D03*
D13*
X76723519Y-107945882D03*
X77158118Y-108936397D03*
D14*
X82307421Y-105071853D03*
D13*
X81282897Y-110882219D03*
X83869444Y-111185983D03*
D12*
X87723864Y-106026918D03*
%TD*%
%TO.C,RC6-1*%
X138134738Y-85899900D03*
D13*
X137967279Y-89728994D03*
X138401878Y-90719509D03*
D14*
X143551181Y-86854965D03*
D13*
X142526657Y-92665331D03*
X145113204Y-92969095D03*
D12*
X148967624Y-87810030D03*
%TD*%
%TO.C,RC6-4*%
X276026679Y-57205035D03*
D13*
X277178946Y-60860480D03*
X277926114Y-61642618D03*
D14*
X281443122Y-56249970D03*
D13*
X282467646Y-62060336D03*
X285002099Y-61461129D03*
D12*
X286859565Y-55294905D03*
%TD*%
%TO.C,RC2-4*%
X215609919Y-43678293D03*
D13*
X216762186Y-47333738D03*
X217509354Y-48115876D03*
D14*
X221026362Y-42723228D03*
D13*
X222050886Y-48533594D03*
X224585339Y-47934387D03*
D12*
X226442805Y-41768163D03*
%TD*%
%TO.C,RC4-7*%
X245948499Y-106032353D03*
D13*
X247100766Y-109687798D03*
X247847934Y-110469936D03*
D14*
X251364942Y-105077288D03*
D13*
X252389466Y-110887654D03*
X254923919Y-110288447D03*
D12*
X256781385Y-104122223D03*
%TD*%
%TO.C,RC5-1*%
X121028149Y-73211608D03*
D13*
X120860690Y-77040702D03*
X121295289Y-78031217D03*
D14*
X126444592Y-74166673D03*
D13*
X125420068Y-79977039D03*
X128006615Y-80280803D03*
D12*
X131861035Y-75121738D03*
%TD*%
D15*
%TO.C,H2*%
X57083274Y-95766726D03*
%TD*%
D12*
%TO.C,RC2-6*%
X222225914Y-81199469D03*
D13*
X223378181Y-84854914D03*
X224125349Y-85637052D03*
D14*
X227642357Y-80244404D03*
D13*
X228666881Y-86054770D03*
X231201334Y-85455563D03*
D12*
X233058800Y-79289339D03*
%TD*%
%TO.C,RC0-3*%
X57303391Y-105498937D03*
D13*
X57135932Y-109328031D03*
X57570531Y-110318546D03*
D14*
X62719834Y-106454002D03*
D13*
X61695310Y-112264368D03*
X64281857Y-112568132D03*
D12*
X68136277Y-107409067D03*
%TD*%
%TO.C,RC1-5*%
X201811328Y-75127173D03*
D13*
X202963595Y-78782618D03*
X203710763Y-79564756D03*
D14*
X207227771Y-74172108D03*
D13*
X208252295Y-79982474D03*
X210786748Y-79383267D03*
D12*
X212644214Y-73217043D03*
%TD*%
%TO.C,RC5-2*%
X117720151Y-91972196D03*
D13*
X117552692Y-95801290D03*
X117987291Y-96791805D03*
D14*
X123136594Y-92927261D03*
D13*
X122112070Y-98737627D03*
X124698617Y-99041391D03*
D12*
X128553037Y-93882326D03*
%TD*%
%TO.C,RC0-6*%
X188012737Y-106576052D03*
D13*
X189165004Y-110231497D03*
X189912172Y-111013635D03*
D14*
X193429180Y-105620987D03*
D13*
X194453704Y-111431353D03*
X196988157Y-110832146D03*
D12*
X198845623Y-104665922D03*
%TD*%
%TO.C,RC2-3*%
X97305565Y-98044492D03*
D13*
X97138106Y-101873586D03*
X97572705Y-102864101D03*
D14*
X102722008Y-98999557D03*
D13*
X101697484Y-104809923D03*
X104284031Y-105113687D03*
D12*
X108138451Y-99954622D03*
%TD*%
%TO.C,RC0-1*%
X43504800Y-74050058D03*
D13*
X43337341Y-77879152D03*
X43771940Y-78869667D03*
D14*
X48921243Y-75005123D03*
D13*
X47896719Y-80815489D03*
X50483266Y-81119253D03*
D12*
X54337686Y-75960188D03*
%TD*%
%TO.C,RC3-5*%
X239332503Y-68511177D03*
D13*
X240484770Y-72166622D03*
X241231938Y-72948760D03*
D14*
X244748946Y-67556112D03*
D13*
X245773470Y-73366478D03*
X248307923Y-72767271D03*
D12*
X250165389Y-66601047D03*
%TD*%
D15*
%TO.C,H5*%
X195763651Y-76197972D03*
%TD*%
%TO.C,H1*%
X63683650Y-58163971D03*
%TD*%
D12*
%TO.C,RC3-2*%
X80198976Y-85356200D03*
D13*
X80031517Y-89185294D03*
X80466116Y-90175809D03*
D14*
X85615419Y-86311265D03*
D13*
X84590895Y-92121631D03*
X87177442Y-92425395D03*
D12*
X91031862Y-87266330D03*
%TD*%
%TO.C,RC1-7*%
X191353325Y-125338054D03*
D13*
X192505592Y-128993499D03*
X193252760Y-129775637D03*
D14*
X196769768Y-124382989D03*
D13*
X197794292Y-130193355D03*
X200328745Y-129594148D03*
D12*
X202186211Y-123427924D03*
%TD*%
%TO.C,RC6-3*%
X150301322Y-126690800D03*
D13*
X150133863Y-130519894D03*
X150568462Y-131510409D03*
D14*
X155717765Y-127645865D03*
D13*
X154693241Y-133456231D03*
X157279788Y-133759995D03*
D12*
X161134208Y-128600930D03*
%TD*%
%TO.C,RC4-1*%
X103921560Y-60523317D03*
D13*
X103754101Y-64352411D03*
X104188700Y-65342926D03*
D14*
X109338003Y-61478382D03*
D13*
X108313479Y-67288748D03*
X110900026Y-67592512D03*
D12*
X114754446Y-62433447D03*
%TD*%
%TO.C,RC1-4*%
X198503330Y-56366585D03*
D13*
X199655597Y-60022030D03*
X200402765Y-60804168D03*
D14*
X203919773Y-55411520D03*
D13*
X204944297Y-61221886D03*
X207478750Y-60622679D03*
D12*
X209336216Y-54456455D03*
%TD*%
%TO.C,RC4-6*%
X265536086Y-107414502D03*
D13*
X266688353Y-111069947D03*
X267435521Y-111852085D03*
D14*
X270952529Y-106459437D03*
D13*
X271977053Y-112269803D03*
X274511506Y-111670596D03*
D12*
X276368972Y-105504372D03*
%TD*%
%TO.C,RC3-1*%
X83506974Y-66595613D03*
D13*
X83339515Y-70424707D03*
X83774114Y-71415222D03*
D14*
X88923417Y-67550678D03*
D13*
X87898893Y-73361044D03*
X90485440Y-73664808D03*
D12*
X94339860Y-68505743D03*
%TD*%
%TO.C,RC5-3*%
X131540734Y-123382802D03*
D13*
X131373275Y-127211896D03*
X131807874Y-128202411D03*
D14*
X136957177Y-124337867D03*
D13*
X135932653Y-130148233D03*
X138519200Y-130451997D03*
D12*
X142373620Y-125292932D03*
%TD*%
%TO.C,RC4-3*%
X114412154Y-110732784D03*
D13*
X114244695Y-114561878D03*
X114679294Y-115552393D03*
D14*
X119828597Y-111687849D03*
D13*
X118804073Y-117498215D03*
X121390620Y-117801979D03*
D12*
X125245040Y-112642914D03*
%TD*%
D15*
%TO.C,H3*%
X137851650Y-76197971D03*
%TD*%
D12*
%TO.C,RC1-2*%
X60611389Y-86738349D03*
D13*
X60443930Y-90567443D03*
X60878529Y-91557958D03*
D14*
X66027832Y-87693414D03*
D13*
X65003308Y-93503780D03*
X67589855Y-93807544D03*
D12*
X71444275Y-88648479D03*
%TD*%
%TO.C,RC2-7*%
X208427323Y-112648348D03*
D13*
X209579590Y-116303793D03*
X210326758Y-117085931D03*
D14*
X213843766Y-111693283D03*
D13*
X214868290Y-117503649D03*
X217402743Y-116904442D03*
D12*
X219260209Y-110738218D03*
%TD*%
D15*
%TO.C,H7*%
X269931650Y-58166726D03*
%TD*%
D12*
%TO.C,RC2-1*%
X63919387Y-67977762D03*
D13*
X63751928Y-71806856D03*
X64186527Y-72797371D03*
D14*
X69335830Y-68932827D03*
D13*
X68311306Y-74743193D03*
X70897853Y-75046957D03*
D12*
X74752273Y-69887892D03*
%TD*%
%TO.C,RC5-4*%
X255612092Y-51132739D03*
D13*
X256764359Y-54788184D03*
X257511527Y-55570322D03*
D14*
X261028535Y-50177674D03*
D13*
X262053059Y-55988040D03*
X264587512Y-55388833D03*
D12*
X266444978Y-49222609D03*
%TD*%
%TO.C,RC5-7*%
X262228088Y-88653914D03*
D13*
X263380355Y-92309359D03*
X264127523Y-93091497D03*
D14*
X267644531Y-87698849D03*
D13*
X268669055Y-93509215D03*
X271203508Y-92910008D03*
D12*
X273060974Y-86743784D03*
%TD*%
%TO.C,RC4-5*%
X282642675Y-94726210D03*
D13*
X283794942Y-98381655D03*
X284542110Y-99163793D03*
D14*
X288059118Y-93771145D03*
D13*
X289083642Y-99581511D03*
X291618095Y-98982304D03*
D12*
X293475561Y-92816080D03*
%TD*%
%TO.C,RC5-0*%
X124336147Y-54451020D03*
D13*
X124168688Y-58280114D03*
X124603287Y-59270629D03*
D14*
X129752590Y-55406085D03*
D13*
X128728066Y-61216451D03*
X131314613Y-61520215D03*
D12*
X135169033Y-56361150D03*
%TD*%
%TO.C,RC6-0*%
X141442736Y-67139312D03*
D13*
X141275277Y-70968406D03*
X141709876Y-71958921D03*
D14*
X146859179Y-68094377D03*
D13*
X145834655Y-73904743D03*
X148421202Y-74208507D03*
D12*
X152275622Y-69049442D03*
%TD*%
%TO.C,RC2-0*%
X67227384Y-49217174D03*
D13*
X67059925Y-53046268D03*
X67494524Y-54036783D03*
D14*
X72643827Y-50172239D03*
D13*
X71619303Y-55982605D03*
X74205850Y-56286369D03*
D12*
X78060270Y-51127304D03*
%TD*%
D15*
%TO.C,H8*%
X276483274Y-95766726D03*
%TD*%
D12*
%TO.C,RC0-2*%
X40196802Y-92810646D03*
D13*
X40029343Y-96639740D03*
X40463942Y-97630255D03*
D14*
X45613245Y-93765711D03*
D13*
X44588721Y-99576077D03*
X47175268Y-99879841D03*
D12*
X51029688Y-94720776D03*
%TD*%
%TO.C,RC3-7*%
X225533912Y-99960057D03*
D13*
X226686179Y-103615502D03*
X227433347Y-104397640D03*
D14*
X230950355Y-99004992D03*
D13*
X231974879Y-104815358D03*
X234509332Y-104216151D03*
D12*
X236366798Y-98049927D03*
%TD*%
%TO.C,RC2-5*%
X218917916Y-62438881D03*
D13*
X220070183Y-66094326D03*
X220817351Y-66876464D03*
D14*
X224334359Y-61483816D03*
D13*
X225358883Y-67294182D03*
X227893336Y-66694975D03*
D12*
X229750802Y-60528751D03*
%TD*%
%TO.C,RC4-2*%
X100613563Y-79283904D03*
D13*
X100446104Y-83112998D03*
X100880703Y-84103513D03*
D14*
X106030006Y-80238969D03*
D13*
X105005482Y-86049335D03*
X107592029Y-86353099D03*
D12*
X111446449Y-81194034D03*
%TD*%
D15*
%TO.C,H4*%
X130993650Y-113789973D03*
%TD*%
%TO.C,H6*%
X202367650Y-113281972D03*
%TD*%
D12*
%TO.C,RC4-0*%
X107229558Y-41762729D03*
D13*
X107062099Y-45591823D03*
X107496698Y-46582338D03*
D14*
X112646001Y-42717794D03*
D13*
X111621477Y-48528160D03*
X114208024Y-48831924D03*
D12*
X118062444Y-43672859D03*
%TD*%
%TO.C,RC3-4*%
X236024505Y-49750589D03*
D13*
X237176772Y-53406034D03*
X237923940Y-54188172D03*
D14*
X241440948Y-48795524D03*
D13*
X242465472Y-54605890D03*
X244999925Y-54006683D03*
D12*
X246857391Y-47840459D03*
%TD*%
%TO.C,RC0-7*%
X172592737Y-128646052D03*
D13*
X173745004Y-132301497D03*
X174492172Y-133083635D03*
D14*
X178009180Y-127690987D03*
D13*
X179033704Y-133501353D03*
X181568157Y-132902146D03*
D12*
X183425623Y-126735922D03*
%TD*%
%TO.C,RC3-6*%
X242640501Y-87271765D03*
D13*
X243792768Y-90927210D03*
X244539936Y-91709348D03*
D14*
X248056944Y-86316700D03*
D13*
X249081468Y-92127066D03*
X251615921Y-91527859D03*
D12*
X253473387Y-85361635D03*
%TD*%
%TO.C,RC3-0*%
X86814972Y-47835025D03*
D13*
X86647513Y-51664119D03*
X87082112Y-52654634D03*
D14*
X92231415Y-48790090D03*
D13*
X91206891Y-54600456D03*
X93793438Y-54904220D03*
D12*
X97647858Y-49745155D03*
%TD*%
%TO.C,RC0-5*%
X184704739Y-87815464D03*
D13*
X185857006Y-91470909D03*
X186604174Y-92253047D03*
D14*
X190121182Y-86860399D03*
D13*
X191145706Y-92670765D03*
X193680159Y-92071558D03*
D12*
X195537625Y-85905334D03*
%TD*%
%TO.C,RC5-6*%
X258920090Y-69893326D03*
D13*
X260072357Y-73548771D03*
X260819525Y-74330909D03*
D14*
X264336533Y-68938261D03*
D13*
X265361057Y-74748627D03*
X267895510Y-74149420D03*
D12*
X269752976Y-67983196D03*
%TD*%
D16*
%TO.C,L34*%
X104998389Y-74482407D03*
X109032000Y-76945252D03*
%TD*%
%TO.C,L28*%
X101598389Y-93082407D03*
X105632000Y-95545252D03*
%TD*%
%TO.C,L14*%
X207468457Y-87846459D03*
X212101154Y-88781200D03*
%TD*%
%TO.C,L25*%
X154598389Y-121882407D03*
X158632000Y-124345252D03*
%TD*%
%TO.C,L37*%
X142498389Y-81082407D03*
X146532000Y-83545252D03*
%TD*%
%TO.C,L21*%
X227868457Y-94046459D03*
X232501154Y-94981200D03*
%TD*%
%TO.C,L38*%
X125398389Y-68482407D03*
X129432000Y-70945252D03*
%TD*%
%TO.C,L10*%
X221268457Y-56446459D03*
X225901154Y-57381200D03*
%TD*%
%TO.C,L26*%
X135898389Y-118482407D03*
X139932000Y-120945252D03*
%TD*%
%TO.C,L12*%
X187068457Y-81846459D03*
X191701154Y-82781200D03*
%TD*%
%TO.C,L43*%
X51098389Y-50482407D03*
X55132000Y-52945252D03*
%TD*%
%TO.C,L19*%
X267868457Y-101246459D03*
X272501154Y-102181200D03*
%TD*%
%TO.C,L48*%
X145766389Y-62137154D03*
X149800000Y-64599999D03*
%TD*%
%TO.C,L44*%
X71598389Y-44382407D03*
X75632000Y-46845252D03*
%TD*%
%TO.C,L2*%
X200868457Y-50246459D03*
X205501154Y-51181200D03*
%TD*%
%TO.C,L27*%
X118698389Y-105882407D03*
X122732000Y-108345252D03*
%TD*%
%TO.C,L32*%
X64998389Y-81582407D03*
X69032000Y-84045252D03*
%TD*%
%TO.C,L1*%
X183736457Y-63046459D03*
X188369154Y-63981200D03*
%TD*%
%TO.C,L40*%
X87898389Y-61682407D03*
X91932000Y-64145252D03*
%TD*%
%TO.C,L23*%
X193668457Y-119246459D03*
X198301154Y-120181200D03*
%TD*%
%TO.C,L24*%
X174968457Y-122646459D03*
X179601154Y-123581200D03*
%TD*%
%TO.C,L41*%
X68198389Y-63082407D03*
X72232000Y-65545252D03*
%TD*%
%TO.C,L9*%
X241668457Y-62446459D03*
X246301154Y-63381200D03*
%TD*%
%TO.C,L36*%
X143201611Y-102217593D03*
X139168000Y-99754748D03*
%TD*%
%TO.C,L22*%
X210868457Y-106646459D03*
X215501154Y-107581200D03*
%TD*%
%TO.C,L33*%
X84498389Y-80282407D03*
X88532000Y-82745252D03*
%TD*%
%TO.C,L30*%
X61598389Y-100682407D03*
X65632000Y-103145252D03*
%TD*%
%TO.C,L4*%
X238468457Y-43646459D03*
X243101154Y-44581200D03*
%TD*%
%TO.C,L13*%
X190468457Y-100446459D03*
X195101154Y-101381200D03*
%TD*%
%TO.C,L47*%
X128698389Y-49682407D03*
X132732000Y-52145252D03*
%TD*%
%TO.C,L29*%
X81198389Y-99282407D03*
X85232000Y-101745252D03*
%TD*%
%TO.C,L31*%
X44498389Y-87937154D03*
X48532000Y-90399999D03*
%TD*%
%TO.C,L45*%
X91198389Y-42882407D03*
X95232000Y-45345252D03*
%TD*%
%TO.C,L17*%
X264668457Y-82646459D03*
X269301154Y-83581200D03*
%TD*%
%TO.C,L20*%
X248268457Y-100046459D03*
X252901154Y-100981200D03*
%TD*%
%TO.C,L5*%
X257968457Y-45046459D03*
X262601154Y-45981200D03*
%TD*%
%TO.C,L8*%
X261268457Y-63865259D03*
X265901154Y-64800000D03*
%TD*%
%TO.C,L46*%
X111598389Y-36882407D03*
X115632000Y-39345252D03*
%TD*%
%TO.C,L6*%
X278436457Y-51046459D03*
X283069154Y-51981200D03*
%TD*%
%TO.C,L42*%
X47798389Y-69282407D03*
X51832000Y-71745252D03*
%TD*%
%TO.C,L39*%
X108298389Y-55382407D03*
X112332000Y-57845252D03*
%TD*%
%TO.C,L18*%
X285068457Y-88646459D03*
X289701154Y-89581200D03*
%TD*%
%TO.C,L15*%
X224568457Y-75046459D03*
X229201154Y-75981200D03*
%TD*%
%TO.C,L35*%
X121998389Y-87082407D03*
X126032000Y-89545252D03*
%TD*%
%TO.C,L7*%
X281668457Y-69846459D03*
X286301154Y-70781200D03*
%TD*%
%TO.C,L3*%
X218068457Y-37646459D03*
X222701154Y-38581200D03*
%TD*%
%TO.C,L11*%
X204136457Y-69046459D03*
X208769154Y-69981200D03*
%TD*%
%TO.C,L16*%
X244968457Y-80946459D03*
X249601154Y-81881200D03*
%TD*%
M02*
