M48
; DRILL file {KiCad 8.0.7} date 2025-02-04T22:32:58+0100
; FORMAT={-:-/ absolute / inch / decimal}
; #@! TF.CreationDate,2025-02-04T22:32:58+01:00
; #@! TF.GenerationSoftware,Kicad,Pcbnew,8.0.7
; #@! TF.FileFunction,Plated,1,2,PTH
FMAT,2
INCH
; #@! TA.AperFunction,Plated,PTH,ViaDrill
T1C0.0118
; #@! TA.AperFunction,Plated,PTH,ComponentDrill
T2C0.0118
; #@! TA.AperFunction,Plated,PTH,ComponentDrill
T3C0.0315
%
G90
G05
T1
X1.6693Y-2.4764
X1.7087Y-2.5827
X1.8504Y-4.0394
X2.0821Y-2.6879
X2.09Y-3.49
X2.1339Y-4.2126
X2.17Y-2.6
X2.1811Y-3.9921
X2.2087Y-3.2835
X2.32Y-2.01
X2.3228Y-2.9843
X2.33Y-4.1
X2.3346Y-2.5315
X2.4173Y-3.7677
X2.4274Y-3.68
X2.445Y-3.275
X2.4606Y-3.0276
X2.64Y-1.82
X2.66Y-2.3844
X2.66Y-2.41
X2.8071Y-3.9567
X2.82Y-3.24
X2.86Y-4.35
X2.8701Y-3.9213
X2.9173Y-3.1811
X2.9213Y-3.6457
X2.99Y-2.3372
X3.05Y-3.2
X3.07Y-1.75
X3.09Y-3.24
X3.11Y-3.96
X3.16Y-2.3601
X3.37Y-2.38
X3.3814Y-2.3571
X3.44Y-3.79
X3.44Y-3.88
X3.44Y-4.07
X3.47Y-1.75
X3.53Y-2.255
X3.53Y-3.85
X3.54Y-4.14
X3.6Y-3.54
X3.61Y-3.19
X3.6244Y-3.6825
X3.7756Y-3.1142
X3.8465Y-3.4961
X3.88Y-1.67
X3.9173Y-2.252
X3.925Y-2.995
X4.15Y-2.16
X4.16Y-2.29
X4.24Y-3.48
X4.2452Y-1.5152
X4.3005Y-3.7095
X4.34Y-3.62
X4.3583Y-4.1339
X4.3974Y-3.87
X4.4125Y-3.6875
X4.43Y-3.0
X4.4372Y-3.88
X4.51Y-2.1087
X4.5787Y-2.8858
X4.61Y-4.0599
X4.67Y-1.51
X4.68Y-3.47
X4.6871Y-2.1535
X4.72Y-4.0356
X4.75Y-2.47
X4.83Y-2.75
X4.93Y-2.45
X4.98Y-2.0
X5.0118Y-4.7165
X5.0433Y-4.1575
X5.0651Y-4.25
X5.08Y-3.51
X5.1181Y-4.126
X5.14Y-4.17
X5.252Y-3.3701
X5.3189Y-4.4724
X5.34Y-2.07
X5.3868Y-2.6329
X5.4485Y-4.29
X5.52Y-3.15
X5.56Y-4.6
X5.61Y-2.47
X5.6577Y-2.3831
X5.69Y-3.92
X5.7992Y-4.622
X5.8428Y-3.1172
X5.9082Y-2.4272
X5.92Y-4.68
X5.9291Y-3.874
X5.94Y-4.7
X6.03Y-4.7199
X6.063Y-3.1457
X6.12Y-4.6772
X6.17Y-4.53
X6.18Y-3.63
X6.18Y-3.73
X6.18Y-3.83
X6.18Y-3.93
X6.18Y-4.03
X6.18Y-4.13
X6.18Y-4.33
X6.1817Y-4.2283
X6.23Y-4.65
X6.25Y-4.63
X6.37Y-3.6091
X6.37Y-4.29
X6.4Y-3.1378
X6.4173Y-2.46
X6.42Y-3.0391
X6.44Y-2.94
X6.44Y-3.062
X6.44Y-4.79
X6.47Y-2.8386
X6.49Y-3.0391
X6.49Y-3.17
X6.4921Y-2.7389
X6.51Y-3.36
X6.512Y-2.6389
X6.52Y-3.17
X6.54Y-3.36
X6.55Y-3.17
X6.57Y-3.36
X6.58Y-3.17
X6.5853Y-2.7421
X6.59Y-4.68
X6.6Y-3.36
X6.6291Y-2.6378
X6.63Y-3.36
X6.6535Y-2.6102
X6.66Y-2.9
X6.68Y-4.76
X6.75Y-3.09
X6.76Y-4.43
X6.76Y-4.53
X6.8508Y-4.7808
X6.92Y-4.13
X6.92Y-4.23
X6.93Y-3.633
X6.93Y-3.73
X6.93Y-3.83
X6.93Y-3.93
X6.93Y-4.03
X6.94Y-2.48
X6.9491Y-4.5909
X6.99Y-3.14
X6.99Y-4.01
X6.9903Y-3.46
X7.02Y-3.0983
X7.02Y-3.46
X7.02Y-3.99
X7.02Y-4.08
X7.04Y-2.7
X7.0588Y-2.6489
X7.165Y-2.575
X7.38Y-3.52
X7.44Y-4.6801
X7.4639Y-3.0415
X7.47Y-4.68
X7.54Y-2.41
X7.54Y-4.535
X7.6196Y-4.9104
X7.65Y-3.28
X7.7283Y-2.815
X7.73Y-2.08
X7.75Y-3.86
X7.8397Y-2.6697
X7.8465Y-3.5236
X7.8503Y-2.7203
X7.91Y-3.25
X7.9546Y-2.6146
X7.975Y-3.635
X8.04Y-4.3301
X8.3008Y-1.8345
X8.36Y-4.0979
X8.4Y-3.38
X8.4173Y-2.3071
X8.425Y-1.605
X8.51Y-4.0483
X8.5276Y-3.0472
X8.5476Y-4.1624
X8.5913Y-2.1613
X8.6619Y-3.9259
X8.6948Y-2.0591
X8.75Y-4.22
X8.76Y-3.0234
X8.81Y-3.7955
X8.97Y-3.91
X9.0241Y-3.5541
X9.04Y-2.51
X9.1024Y-1.8189
X9.1101Y-3.5374
X9.114Y-1.7151
X9.17Y-1.72
X9.1969Y-2.5197
X9.3204Y-3.27
X9.3759Y-2.4659
X9.4Y-3.82
X9.46Y-2.38
X9.56Y-3.2575
X9.6591Y-1.6509
X9.72Y-3.76
X9.72Y-3.838
X9.7464Y-2.3191
X9.8642Y-1.8248
X9.88Y-3.8099
X9.92Y-3.1116
X9.94Y-3.81
X9.9882Y-2.6102
X10.02Y-1.8
X10.13Y-3.55
X10.1583Y-2.5683
X10.1783Y-2.5483
X10.25Y-4.0526
X10.25Y-4.0807
X10.2799Y-3.3093
X10.2835Y-3.3346
X10.36Y-3.19
X10.5335Y-2.3906
X10.5365Y-4.0567
X10.56Y-3.8252
X10.61Y-1.98
X10.6581Y-1.94
X10.6741Y-3.7703
X10.7Y-3.22
X10.73Y-1.94
X10.7638Y-2.6693
X10.8Y-2.12
X10.9016Y-3.5787
X10.96Y-2.12
X10.9724Y-4.1063
X10.9832Y-4.0831
X11.0732Y-3.5532
X11.16Y-3.5793
X11.2799Y-2.0201
X11.28Y-2.6482
X11.33Y-2.62
X11.4546Y-2.8054
T2
X1.7519Y-3.4621
X1.8818Y-2.7277
X1.9107Y-3.5591
X2.0117Y-1.9875
X2.0406Y-2.8246
X2.1706Y-2.0845
X2.4251Y-3.9639
X2.559Y-3.2119
X2.5839Y-4.0608
X2.685Y-2.4836
X2.7178Y-3.3089
X2.8188Y-1.7473
X2.8438Y-2.5805
X2.9776Y-1.8443
X3.1968Y-3.9088
X3.3267Y-3.1607
X3.3556Y-4.0057
X3.4606Y-2.4284
X3.4855Y-3.2577
X3.5905Y-1.6883
X3.6194Y-2.5254
X3.7493Y-1.7852
X3.9999Y-3.6647
X4.1338Y-2.9324
X4.1587Y-3.7616
X4.2637Y-2.1804
X4.2926Y-3.0293
X4.3936Y-1.4521
X4.4225Y-2.2774
X4.5524Y-1.549
X4.6732Y-4.1686
X4.8031Y-3.4284
X4.832Y-4.2656
X4.9369Y-2.6962
X4.9619Y-3.5254
X5.0669Y-1.956
X5.0957Y-2.7931
X5.2257Y-2.053
X5.3503Y-4.6647
X5.4791Y-3.9274
X5.5091Y-4.7616
X5.6102Y-3.1922
X5.6379Y-4.0243
X5.7388Y-2.4463
X5.769Y-3.2892
X5.8976Y-2.5433
X6.0866Y-4.7985
X6.2454Y-4.8955
X6.8885Y-4.8286
X7.0709Y-4.8654
X7.2337Y-2.4821
X7.3649Y-3.2223
X7.4161Y-2.5189
X7.4988Y-3.9546
X7.5473Y-3.2591
X7.6247Y-4.6947
X7.6811Y-3.9914
X7.8071Y-4.7315
X7.9082Y-1.9782
X8.0369Y-2.7184
X8.0906Y-2.015
X8.168Y-3.4585
X8.2193Y-2.7552
X8.3019Y-4.1987
X8.3504Y-3.4953
X8.4843Y-4.2355
X8.5854Y-1.4821
X8.7114Y-2.2223
X8.7678Y-1.5189
X8.8413Y-2.9546
X8.8937Y-2.2591
X8.9712Y-3.7026
X9.0237Y-2.9914
X9.1536Y-3.7394
X9.3885Y-1.7184
X9.5145Y-2.4585
X9.5709Y-1.7552
X9.6444Y-3.1869
X9.6969Y-2.4953
X9.7743Y-3.9388
X9.8268Y-3.2237
X9.9567Y-3.9756
X10.1562Y-1.7735
X10.2862Y-2.5144
X10.3386Y-1.8103
X10.42Y-3.2538
X10.4685Y-2.5512
X10.546Y-3.9861
X10.6024Y-3.2906
X10.7284Y-4.0229
X10.9621Y-2.0097
X11.0893Y-2.7499
X11.1445Y-2.0465
X11.2232Y-3.49
X11.2717Y-2.7867
X11.4056Y-3.5268
T3
X6.2598Y-2.5389
X6.2598Y-2.6389
X6.2598Y-2.7389
X6.2598Y-2.8389
X6.2598Y-2.9389
X6.2598Y-3.0389
X6.2598Y-3.1389
X6.8596Y-2.5389
X6.8596Y-2.6389
X6.8596Y-2.7389
X6.8596Y-2.8389
X6.8596Y-2.9389
X6.8596Y-3.0389
X6.8596Y-3.1389
M30
